<svg xmlns="http://www.w3.org/2000/svg" xmlns:xlink="http://www.w3.org/1999/xlink" width="35" height="35" viewBox="0 0 35 35"><defs><style>.a{fill:#f0f0f0;}.b{clip-path:url(#a);}.c{fill:#585eaa;}</style><clipPath id="a"><rect class="a" width="35" height="35" transform="translate(109 218)"/></clipPath></defs><g class="b" transform="translate(-109 -218)"><g transform="translate(117 225)"><path class="c" d="M17.656,20H2.344A2.346,2.346,0,0,1,0,17.656V3.906A2.346,2.346,0,0,1,2.344,1.562h.938V0H4.844V1.562H15.156V0h1.562V1.562h.938A2.346,2.346,0,0,1,20,3.906v13.75A2.346,2.346,0,0,1,17.656,20ZM1.562,7.344V17.656a.782.782,0,0,0,.781.781H17.656a.782.782,0,0,0,.781-.781V7.344Zm.781-4.219a.782.782,0,0,0-.781.781V5.782H18.437V3.906a.782.782,0,0,0-.781-.781h-.938V4.687H15.156V3.125H4.844V4.687H3.281V3.125Z"/><rect class="c" width="2" height="2" transform="translate(3 9)"/><rect class="c" width="2" height="2" transform="translate(6 9)"/><rect class="c" width="2" height="2" transform="translate(9 9)"/><rect class="c" width="2" height="2" transform="translate(12 9)"/><rect class="c" width="2" height="2" transform="translate(15 9)"/><rect class="c" width="2" height="2" transform="translate(3 12)"/><rect class="c" width="2" height="2" transform="translate(6 12)"/><rect class="c" width="2" height="2" transform="translate(9 12)"/><rect class="c" width="2" height="2" transform="translate(12 12)"/><rect class="c" width="2" height="2" transform="translate(3 15)"/><rect class="c" width="2" height="2" transform="translate(6 15)"/><rect class="c" width="2" height="2" transform="translate(9 15)"/><rect class="c" width="2" height="2" transform="translate(12 15)"/><rect class="c" width="2" height="2" transform="translate(15 12)"/></g></g></svg>