<svg xmlns="http://www.w3.org/2000/svg" xmlns:xlink="http://www.w3.org/1999/xlink" width="35" height="35" viewBox="0 0 35 35"><defs><style>.a{fill:#f0f0f0;}.b{clip-path:url(#a);}.c{fill:#585eaa;}</style><clipPath id="a"><rect class="a" width="35" height="35" transform="translate(26 139)"/></clipPath></defs><g class="b" transform="translate(-26 -139)"><g transform="translate(29 148)"><path class="c" d="M14.5,17C9.157,17,4.088,14.22.227,9.171a1.113,1.113,0,0,1,0-1.347C4.09,2.779,9.159,0,14.5,0S24.912,2.78,28.773,7.829a1.113,1.113,0,0,1,0,1.347C24.91,14.222,19.841,17,14.5,17Zm0-14.5c-.131,0-.264,0-.395.012A6.116,6.116,0,0,0,10.19,4.262a5.916,5.916,0,0,0-.173,8.3A6.17,6.17,0,0,0,14.5,14.5c.131,0,.263,0,.395-.012a6.131,6.131,0,0,0,3.908-1.752,5.9,5.9,0,0,0,.178-8.3A6.169,6.169,0,0,0,14.5,2.5Zm0,9.225a3.322,3.322,0,0,1-2.42-1.044,3.161,3.161,0,0,1-.856-2.393,3.261,3.261,0,0,1,3.066-3.016c.071,0,.142-.007.212-.007a3.323,3.323,0,0,1,2.421,1.044A3.16,3.16,0,0,1,17.78,8.7a3.262,3.262,0,0,1-3.067,3.017C14.643,11.725,14.571,11.727,14.5,11.727Z" transform="translate(0 0.5)"/></g></g></svg>