<svg xmlns="http://www.w3.org/2000/svg" xmlns:xlink="http://www.w3.org/1999/xlink" width="50" height="50" viewBox="0 0 50 50"><defs><style>.a{fill:#585eaa;}.b{clip-path:url(#a);}</style><clipPath id="a"><rect class="a" width="50" height="50" transform="translate(312 158)"/></clipPath></defs><g class="b" transform="translate(-312 -158)"><g transform="translate(323 169.269)"><path class="a" d="M26.832,28a1.16,1.16,0,0,1-.826-.343l-6.731-6.726A11.8,11.8,0,0,1,3.455,3.457,11.8,11.8,0,0,1,20.926,19.28l6.731,6.732a1.159,1.159,0,0,1,0,1.646A1.16,1.16,0,0,1,26.832,28ZM11.8,2.343A9.454,9.454,0,1,0,21.257,11.8,9.468,9.468,0,0,0,11.8,2.343Z" transform="translate(0 -0.269)"/></g></g></svg>