<svg xmlns="http://www.w3.org/2000/svg" width="54.264" height="60.979" viewBox="0 0 54.264 60.979"><defs><style>.a{fill:#a9a5a3;}</style></defs><g transform="translate(-23.357 0)"><circle class="a" cx="2.152" cy="2.152" r="2.152" transform="translate(36.431 35.492)"/><circle class="a" cx="2.152" cy="2.152" r="2.152" transform="translate(60.243 35.492)"/><path class="a" d="M108.739,213.875a4.373,4.373,0,0,0-3.112,1.289,1.15,1.15,0,0,0,1.626,1.626,2.1,2.1,0,0,1,2.972,0,1.15,1.15,0,1,0,1.626-1.626A4.374,4.374,0,0,0,108.739,213.875Z" transform="translate(-70.156 -183.133)"/><path class="a" d="M271.291,215.177a1.15,1.15,0,0,0,1.626,1.626,2.1,2.1,0,0,1,2.973,0,1.15,1.15,0,0,0,1.626-1.626A4.407,4.407,0,0,0,271.291,215.177Z" transform="translate(-212.008 -183.146)"/><path class="a" d="M189.447,323.469a3.132,3.132,0,0,1-4.429,0,1.15,1.15,0,1,0-1.626,1.626,5.432,5.432,0,0,0,7.682,0,1.15,1.15,0,0,0-1.626-1.626Z" transform="translate(-136.744 -276.686)"/><path class="a" d="M77.621,36.535a6.386,6.386,0,0,0-5.227-6.271V11.027A7.427,7.427,0,0,0,62.5,4.02L55.283,1.57A28.646,28.646,0,0,0,38.4,1.011C31.2,3,27.069,7.2,26.432,13.17a8.729,8.729,0,0,0-1.316,2.48l-.56,1.657a2,2,0,0,0,3.281,2.074,4.012,4.012,0,0,1,.748-.568v11.45a6.375,6.375,0,0,0,.36,12.6,22.082,22.082,0,0,0,6.038,11.6,21.632,21.632,0,0,0,15.507,6.516h0A21.918,21.918,0,0,0,72.071,42.857,6.386,6.386,0,0,0,77.621,36.535ZM67.8,6.754a5.049,5.049,0,0,1,2.293,4.272V26.074a7.471,7.471,0,0,1-6.31-7.371l-.1-12.643A5.035,5.035,0,0,1,67.8,6.754ZM27.071,17.048l.224-.661a6.441,6.441,0,0,1,8.821-3.777,8.793,8.793,0,0,0,10.237-2.132l.285-.322a1.15,1.15,0,0,0-1.723-1.524l-.285.322a6.479,6.479,0,0,1-7.543,1.571,8.751,8.751,0,0,0-7.131-.112c-.208.089-.41.188-.608.292,1.337-3.563,4.572-6.073,9.661-7.477a26.356,26.356,0,0,1,15.536.52L61.39,6.071l.09,5.942a20.212,20.212,0,0,1-12.559,7.914,20.217,20.217,0,0,1-14.9-2.943A6.231,6.231,0,0,0,27.071,17.048ZM25.657,36.535a4.084,4.084,0,0,1,2.927-3.911v6.233q0,.808.057,1.606A4.084,4.084,0,0,1,25.657,36.535Zm38.7,16.4a19.477,19.477,0,0,1-13.861,5.742h0a19.351,19.351,0,0,1-13.87-5.831,19.813,19.813,0,0,1-5.735-13.992V18.271a3.974,3.974,0,0,1,1.879.639,22.505,22.505,0,0,0,16.587,3.276,22.49,22.49,0,0,0,12.134-6.6V18.7a9.772,9.772,0,0,0,8.609,9.689V39.074A19.476,19.476,0,0,1,64.352,52.937Zm8-12.478c.028-.459.044-.921.044-1.385v-6.45a4.076,4.076,0,0,1-.044,7.835Z" transform="translate(0 0)"/></g></svg>