<svg xmlns="http://www.w3.org/2000/svg" width="61.149" height="61.151" viewBox="0 0 61.149 61.151"><defs><style>.a{fill:#a9a5a3;}</style></defs><g transform="translate(-0.007)"><g transform="translate(8.128 53.984)"><path class="a" d="M70.042,452.351a1.193,1.193,0,1,0,.35.844A1.2,1.2,0,0,0,70.042,452.351Z" transform="translate(-68.003 -452.001)"/></g><g transform="translate(54.045 21.499)"><path class="a" d="M454.493,180.358a1.191,1.191,0,1,0,.351.844A1.2,1.2,0,0,0,454.493,180.358Z" transform="translate(-452.454 -180.008)"/></g><g transform="translate(0.007)"><g transform="translate(0)"><path class="a" d="M60.806.35A1.2,1.2,0,0,0,59.961,0L30.581,0A1.194,1.194,0,0,0,29.387,1.2V4.611L18.066,7.645a1.194,1.194,0,0,0-.845,1.463L23.089,31l-5.076,5.076a3.582,3.582,0,0,0-2.958-1.564H3.59A3.587,3.587,0,0,0,.007,38.1V57.567A3.587,3.587,0,0,0,3.59,61.15H15.055a3.589,3.589,0,0,0,3.477-2.721l1.42,1.238a6.017,6.017,0,0,0,3.955,1.482H59.961a1.194,1.194,0,0,0,1.194-1.194V1.194A1.2,1.2,0,0,0,60.806.35ZM16.249,57.567a1.2,1.2,0,0,1-1.194,1.194H3.59A1.2,1.2,0,0,1,2.4,57.567V38.1A1.2,1.2,0,0,1,3.59,36.906H8.128V50.664a1.194,1.194,0,0,0,2.389,0V36.906h4.538A1.2,1.2,0,0,1,16.25,38.1V57.567ZM19.838,9.643l9.549-2.559V11.51l-.8.215a1.194,1.194,0,0,0-.845,1.463,3.219,3.219,0,0,1-2.274,3.939,1.194,1.194,0,0,0-.844,1.465L29.28,35.83h-2.4L25.647,31a1.193,1.193,0,0,0-.2-.419Zm9.549,7.344V27.065L27.209,19A5.6,5.6,0,0,0,29.387,16.987ZM46.545,58.762H23.908a3.629,3.629,0,0,1-2.386-.894l-2.884-2.515V38.834l5.214-5.214.946,3.7a1.194,1.194,0,0,0,1.157.9H49.436a1.672,1.672,0,0,1,0,3.344H37.4a1.194,1.194,0,1,0,0,2.389h15.77a1.672,1.672,0,0,1,0,3.344H37.4a1.194,1.194,0,1,0,0,2.389H50.619a1.672,1.672,0,0,1,0,3.344H37.4a1.194,1.194,0,1,0,0,2.389h9.141a1.672,1.672,0,1,1,0,3.344Zm12.222,0H50.244a4.046,4.046,0,0,0,0-3.344h.375a4.058,4.058,0,0,0,3.63-5.878,4.057,4.057,0,0,0,2.185-6.334V28.068a1.194,1.194,0,1,0-2.389,0V41.659a4.062,4.062,0,0,0-.871-.095h-.039a4.058,4.058,0,0,0-3.7-5.733h-1.92a5.716,5.716,0,1,0-4.491,0H36.5V13.121a5.622,5.622,0,0,0,4.282-4.282h8.984a5.622,5.622,0,0,0,4.282,4.282v3.713a1.194,1.194,0,1,0,2.389,0v-4.78a1.194,1.194,0,0,0-1.194-1.194,3.219,3.219,0,0,1-3.216-3.216,1.194,1.194,0,0,0-1.194-1.194H39.713a1.194,1.194,0,0,0-1.194,1.194A3.219,3.219,0,0,1,35.3,10.861a1.194,1.194,0,0,0-1.194,1.194V35.831H31.776V2.39H58.767ZM45.271,33.9A3.327,3.327,0,1,1,48.6,30.575,3.331,3.331,0,0,1,45.271,33.9Z" transform="translate(-0.007 0)"/></g></g></g></svg>