<svg xmlns="http://www.w3.org/2000/svg" width="60" height="60" viewBox="0 0 60 60"><defs><style>.a{fill:#a9a5a3;}</style></defs><g transform="translate(-2 -2)"><path class="a" d="M59,2H5A3,3,0,0,0,2,5V59a3,3,0,0,0,3,3H59a3,3,0,0,0,3-3V5a3,3,0,0,0-3-3Zm1,57a1,1,0,0,1-1,1H5a1,1,0,0,1-1-1V12H60ZM4,10V5A1,1,0,0,1,5,4H59a1,1,0,0,1,1,1v5Z"/><path class="a" d="M6.29,6.29A1.033,1.033,0,0,0,6,7a1,1,0,0,0,.08.38.933.933,0,0,0,.21.33A1,1,0,1,0,7.71,6.29a1.047,1.047,0,0,0-1.42,0Z"/><path class="a" d="M10.29,6.29A1.052,1.052,0,0,0,10,7a1.355,1.355,0,0,0,.02.2.636.636,0,0,0,.06.18.757.757,0,0,0,.09.18,1.576,1.576,0,0,0,.12.15,1.014,1.014,0,0,0,1.42,0l.12-.15a.757.757,0,0,0,.09-.18.636.636,0,0,0,.06-.18A1.355,1.355,0,0,0,12,7a1,1,0,0,0-1.71-.71Z"/><path class="a" d="M14.29,6.29a1,1,0,1,0,1.42,0,1.047,1.047,0,0,0-1.42,0Z"/><path class="a" d="M58,14H6V28H58ZM56,26H8V16H56Z"/><path class="a" d="M24,30H6V58H24ZM22,56H8V32H22Z"/><path class="a" d="M26,43H58V30H26Zm2-11H56v9H28Z"/><path class="a" d="M26,58H58V45H26Zm2-11H56v9H28Z"/></g></svg>