<svg xmlns="http://www.w3.org/2000/svg" width="72.267" height="72.267" viewBox="0 0 72.267 72.267"><defs><style>.a{fill:#4c598c;}</style></defs><g transform="translate(0 8)"><g transform="translate(0 -8)"><path class="a" d="M72.185,28.5c-.01-.029-.014-.058-.026-.086a1.194,1.194,0,0,0-.2-.322L61.7,16.819a7.242,7.242,0,0,0-5.348-2.366H50.587V2.409A2.409,2.409,0,0,0,48.178,0H24.089A2.409,2.409,0,0,0,21.68,2.409V14.453H15.913a7.242,7.242,0,0,0-5.348,2.366L.313,28.1a1.194,1.194,0,0,0-.2.322c-.012.028-.017.057-.026.086a1.159,1.159,0,0,0-.069.338c0,.023-.013.042-.013.065V51.791a7.234,7.234,0,0,0,7.227,7.227h8.431L11.322,64.8a2.409,2.409,0,0,0,1.927,3.854h7l-.094.208a2.409,2.409,0,0,0,2.193,3.4H49.921a2.409,2.409,0,0,0,2.193-3.4l-.1-.208h7A2.409,2.409,0,0,0,60.945,64.8l-4.336-5.781H65.04a7.234,7.234,0,0,0,7.227-7.227V28.907c0-.023-.012-.042-.013-.065A1.158,1.158,0,0,0,72.185,28.5ZM24.089,2.409H48.178V21.68H24.089ZM12.348,18.44a4.825,4.825,0,0,1,3.565-1.578H21.68V21.68h-1.2a1.2,1.2,0,0,0,0,2.409H51.791a1.2,1.2,0,1,0,0-2.409h-1.2V16.862h5.767a4.825,4.825,0,0,1,3.565,1.578l8.42,9.262H3.928ZM54.2,55.807l-2.409-3.212V50.587a3.613,3.613,0,0,0-3.613-3.613H24.089a3.613,3.613,0,0,0-3.613,3.613v2.008l-2.409,3.212V46.973A8.441,8.441,0,0,1,26.5,38.542H45.769A8.441,8.441,0,0,1,54.2,46.973Zm-4.818-4.016h-26.5v-1.2a1.2,1.2,0,0,1,1.2-1.2H48.178a1.2,1.2,0,0,1,1.2,1.2ZM22.346,69.858l4.927-10.84h17.72l4.932,10.84Zm28.578-3.613-4.045-8.9-.013-.029a1.174,1.174,0,0,0-.225-.324c-.025-.026-.054-.047-.081-.071a1.2,1.2,0,0,0-.261-.176,1.132,1.132,0,0,0-.11-.051,1.2,1.2,0,0,0-.42-.086H26.5a1.2,1.2,0,0,0-.419.084,1.135,1.135,0,0,0-.11.051,1.2,1.2,0,0,0-.261.176c-.026.024-.055.045-.081.071a1.174,1.174,0,0,0-.225.324l-.013.029-4.046,8.9H13.249L22.282,54.2h27.7l9.033,12.044ZM69.858,51.791a4.818,4.818,0,0,1-4.818,4.818H56.609V46.973a10.853,10.853,0,0,0-10.84-10.84H26.5a10.853,10.853,0,0,0-10.84,10.84v9.636H7.227a4.818,4.818,0,0,1-4.818-4.818V30.111H69.858Z" transform="translate(0 0)"/><path class="a" d="M53.613,35.227A3.613,3.613,0,1,0,50,31.613,3.613,3.613,0,0,0,53.613,35.227Zm0-4.818a1.2,1.2,0,1,1-1.2,1.2A1.2,1.2,0,0,1,53.613,30.409Z" transform="translate(10.222 5.724)"/><circle class="a" cx="1.5" cy="1.5" r="1.5" transform="translate(62 43)"/><ellipse class="a" cx="1.5" cy="1" rx="1.5" ry="1" transform="translate(62 47)"/><circle class="a" cx="1.5" cy="1.5" r="1.5" transform="translate(62 50)"/><path class="a" d="M26.2,53.409H35.84a1.2,1.2,0,1,0,0-2.409H26.2a1.2,1.2,0,1,0,0,2.409Z" transform="translate(5.111 10.427)"/><path class="a" d="M38.658,54H24.2a1.2,1.2,0,0,0,0,2.409H38.658a1.2,1.2,0,0,0,0-2.409Z" transform="translate(4.702 11.04)"/><path class="a" d="M5.2,30.613a1.2,1.2,0,0,0,1.2-1.2V28.2A1.2,1.2,0,1,0,4,28.2v1.2A1.2,1.2,0,0,0,5.2,30.613Z" transform="translate(0.818 5.52)"/><path class="a" d="M5.2,41.636a1.2,1.2,0,0,0,1.2-1.2V33.2A1.2,1.2,0,1,0,4,33.2v7.227A1.2,1.2,0,0,0,5.2,41.636Z" transform="translate(0.818 6.542)"/></g></g></svg>