<svg xmlns="http://www.w3.org/2000/svg" width="61.515" height="48.502" viewBox="0 0 61.515 48.502"><defs><style>.a{fill:#e98b84;}</style></defs><g transform="translate(0 -44)"><path class="a" d="M53.234,47.549H21.294A3.553,3.553,0,0,0,17.745,44H13.013a3.553,3.553,0,0,0-3.549,3.549H8.281A8.29,8.29,0,0,0,0,55.83V84.221A8.29,8.29,0,0,0,8.281,92.5H53.234a8.29,8.29,0,0,0,8.281-8.281V55.83A8.29,8.29,0,0,0,53.234,47.549ZM13.013,46.366h4.732a1.184,1.184,0,0,1,1.183,1.183h-7.1A1.184,1.184,0,0,1,13.013,46.366Zm40.221,43.77H8.281a5.922,5.922,0,0,1-5.915-5.915V61.745l14.762-.028a1.183,1.183,0,1,0,0-2.366l-14.762.028V55.83a5.922,5.922,0,0,1,5.915-5.915H53.234a5.922,5.922,0,0,1,5.915,5.915v3.549H44.656a1.183,1.183,0,1,0,0,2.366H59.149V84.221A5.922,5.922,0,0,1,53.234,90.136Z" transform="translate(0 0)"/><path class="a" d="M105.745,100a17.745,17.745,0,1,0,17.745,17.745A17.765,17.765,0,0,0,105.745,100Zm0,33.123a15.379,15.379,0,1,1,15.379-15.379A15.4,15.4,0,0,1,105.745,133.123Z" transform="translate(-74.987 -47.719)"/><path class="a" d="M133.013,132a13.013,13.013,0,1,0,13.013,13.013A13.028,13.028,0,0,0,133.013,132Zm0,23.66a10.647,10.647,0,1,1,10.647-10.647A10.659,10.659,0,0,1,133.013,155.66Z" transform="translate(-102.255 -74.987)"/><path class="a" d="M201.183,164a1.183,1.183,0,0,0,0,2.366,5.922,5.922,0,0,1,5.915,5.915,1.183,1.183,0,1,0,2.366,0A8.29,8.29,0,0,0,201.183,164Z" transform="translate(-170.426 -102.255)"/><path class="a" d="M331.549,99.1A3.549,3.549,0,1,0,328,95.549,3.553,3.553,0,0,0,331.549,99.1Zm0-4.732a1.183,1.183,0,1,1-1.183,1.183A1.184,1.184,0,0,1,331.549,94.366Z" transform="translate(-279.498 -40.902)"/></g></svg>