<svg xmlns="http://www.w3.org/2000/svg" width="69.247" height="69.247" viewBox="0 0 69.247 69.247"><defs><style>.a{fill:#4c598c;}</style></defs><path class="a" d="M63.663,11.169H53.611V0H15.636V11.169H5.584A5.591,5.591,0,0,0,0,16.753V50.26a5.588,5.588,0,0,0,3.351,5.111V59.2A3.355,3.355,0,0,0,6.7,62.546h9.488l-.67,6.7H53.728l-.67-6.7h9.488A3.355,3.355,0,0,0,65.9,59.2V55.371a5.588,5.588,0,0,0,3.351-5.111V16.753A5.591,5.591,0,0,0,63.663,11.169ZM53.611,13.4h2.234V17.87H53.611ZM13.4,13.4h2.234V17.87H13.4Zm4.585,53.611L20,46.909H49.249l2.01,20.1ZM51.271,44.676H17.976l-.894,8.935H14.52V42.442H54.728V53.611H52.164ZM63.663,59.2a1.119,1.119,0,0,1-1.117,1.117H52.834l-.447-4.468H63.663Zm3.351-8.935a3.355,3.355,0,0,1-3.351,3.351h-6.7v-13.4H12.286v13.4H10.052v2.234h6.807l-.447,4.468H6.7A1.119,1.119,0,0,1,5.584,59.2V55.844H7.818V53.611H5.584A3.355,3.355,0,0,1,2.234,50.26V16.753A3.355,3.355,0,0,1,5.584,13.4h5.584v6.7h35.74V17.87H17.87V2.234H51.377V17.87H49.143V20.1h8.935V13.4h5.584a3.355,3.355,0,0,1,3.351,3.351Z"/><g transform="translate(4.468 22.338)"><path class="a" d="M32,160v15.636H54.338V160Zm20.1,13.4H34.234V162.234H52.1Z" transform="translate(-32 -160)"/></g><g transform="translate(24.572 4.468)"><rect class="a" width="24" height="2" transform="translate(0.428 0.532)"/></g><g transform="translate(20.104 8.935)"><rect class="a" width="29" height="2" transform="translate(-0.104 0.065)"/></g><g transform="translate(20.104 13.403)"><rect class="a" width="29" height="2" transform="translate(-0.104 -0.403)"/></g><g transform="translate(22.338 49.143)"><rect class="a" width="25" height="2" transform="translate(-0.338 0.857)"/></g><g transform="translate(22.338 53.611)"><rect class="a" width="13" height="2" transform="translate(-0.338 0.389)"/></g><g transform="translate(22.338 58.078)"><rect class="a" width="13" height="2" transform="translate(-0.338 -0.078)"/></g><g transform="translate(22.338 62.546)"><rect class="a" width="13" height="2" transform="translate(-0.338 0.454)"/></g><g transform="translate(36.857 53.611)"><path class="a" d="M264,384v11.169h11.169V384Zm8.935,8.935h-6.7v-6.7h6.7Z" transform="translate(-264 -384)"/></g><g transform="translate(58.078 24.572)"><rect class="a" width="2" height="4" transform="translate(-0.078 0.428)"/></g><g transform="translate(20.104 5.468)"><rect class="a" width="2" height="2" transform="translate(-0.104 -0.468)"/></g><g transform="translate(53.611 26.459)"><path class="a" d="M392.38,189.52l-1.124,1.931a3.315,3.315,0,0,1,1.679,2.883,3.351,3.351,0,1,1-6.7,0,3.315,3.315,0,0,1,1.679-2.883l-1.124-1.931a5.584,5.584,0,1,0,5.591,0Z" transform="translate(-384 -189.52)"/></g><g transform="translate(37.974 24.572)"><rect class="a" width="2" height="2" transform="translate(0.026 0.428)"/></g><g transform="translate(42.442 24.572)"><rect class="a" width="3" height="2" transform="translate(-0.442 0.428)"/></g><g transform="translate(46.909 24.572)"><rect class="a" width="2" height="2" transform="translate(0.091 0.428)"/></g><g transform="translate(37.974 29.039)"><rect class="a" width="2" height="2" transform="translate(0.026 -0.039)"/></g><g transform="translate(42.442 29.039)"><rect class="a" width="3" height="2" transform="translate(-0.442 -0.039)"/></g><g transform="translate(46.909 29.039)"><rect class="a" width="2" height="2" transform="translate(0.091 -0.039)"/></g><g transform="translate(37.974 33.507)"><rect class="a" width="2" height="2" transform="translate(0.026 0.493)"/></g><g transform="translate(42.442 33.507)"><rect class="a" width="3" height="2" transform="translate(-0.442 0.493)"/></g><g transform="translate(46.909 33.507)"><rect class="a" width="2" height="2" transform="translate(0.091 0.493)"/></g></svg>