<svg xmlns="http://www.w3.org/2000/svg" width="65" height="59.043" viewBox="0 0 65 59.043"><defs><style>.a{fill:#a9a5a3;}</style></defs><g transform="translate(0 -23.462)"><g transform="translate(59.361 62.219)"><path class="a" d="M472.85,332.193l-3.1-3.074a1.27,1.27,0,0,0-1.788,1.8l3.1,3.074a1.27,1.27,0,0,0,1.789-1.8Z" transform="translate(-467.587 -328.751)"/></g><g transform="translate(56.198 59.071)"><path class="a" d="M444.844,304.323a1.27,1.27,0,0,0-1.8,0l0,0a1.27,1.27,0,1,0,1.8,0Z" transform="translate(-442.675 -303.951)"/></g><g transform="translate(0 23.462)"><g transform="translate(0 0)"><path class="a" d="M47.543,65.3,59.861,52.98a4.782,4.782,0,0,0-2.308-8.044A4.787,4.787,0,0,0,54.026,38.2,4.777,4.777,0,0,0,50.3,31.994a4.787,4.787,0,0,0-6.829-5.708l-.123-.132a8.473,8.473,0,0,0-6.183-2.692H27.193a1.27,1.27,0,0,0-1.27,1.27V26.4a5.769,5.769,0,0,0,.328,1.925,4.785,4.785,0,0,0-6.378,5.923,4.785,4.785,0,0,0-3.732,6.212,4.785,4.785,0,0,0-3.524,6.729,4.785,4.785,0,0,0-2.308,8.046l2.533,2.533L.371,70.235a1.27,1.27,0,1,0,1.8,1.8L14.758,59.44A4.782,4.782,0,0,0,21.9,55.086c.064,0,.129,0,.193,0a4.781,4.781,0,0,0,4.785-4.783c0-.065,0-.129,0-.193.064,0,.127,0,.191,0a4.781,4.781,0,0,0,4.785-4.783c0-.065,0-.129,0-.193.064,0,.127,0,.191,0a4.782,4.782,0,0,0,3.7-7.816L44.166,28.9a2.245,2.245,0,1,1,3.175,3.175L46.1,33.322,41.59,37.831a1.27,1.27,0,1,0,1.8,1.8l4.509-4.509a2.245,2.245,0,1,1,3.175,3.175l-1.243,1.243L46.561,42.8a1.27,1.27,0,1,0,1.8,1.8l3.266-3.266A2.245,2.245,0,1,1,54.8,44.507l-1.706,1.706-1.56,1.56a1.27,1.27,0,1,0,1.8,1.8l1.562-1.562a2.245,2.245,0,0,1,3.174,3.177L45.745,63.5A17.2,17.2,0,0,1,34.17,68.545a1.27,1.27,0,0,0-.854.373L21.938,80.339a1.27,1.27,0,1,0,1.8,1.792l8.37-8.4a11.8,11.8,0,0,0,7.168,1.844l6.551,6.551a1.27,1.27,0,1,0,1.8-1.8l-6.965-6.965a1.27,1.27,0,0,0-1-.368l-.4.033a9.269,9.269,0,0,1-5.3-1.153l.816-.819A19.73,19.73,0,0,0,47.543,65.3ZM18.711,56.867a2.245,2.245,0,0,1-3.175,0L12.1,53.436A2.245,2.245,0,1,1,15.28,50.26l3.431,3.431A2.248,2.248,0,0,1,18.711,56.867ZM23.683,51.9a2.248,2.248,0,0,1-3.176,0l-3.431-3.431L15.37,46.759a2.245,2.245,0,1,1,3.175-3.175l5.137,5.137h0a2.246,2.246,0,0,1,0,3.176Zm4.971-4.971a2.248,2.248,0,0,1-3.176,0l-6.38-6.38a2.245,2.245,0,0,1,3.174-3.176l2.908,2.908,3.473,3.473h0a2.246,2.246,0,0,1,0,3.175Zm4.971-4.971a2.248,2.248,0,0,1-3.175,0l-6.38-6.38,0,0-1.241-1.241A2.245,2.245,0,0,1,26,31.155l7.622,7.622a2.246,2.246,0,0,1,0,3.176Zm.334-6.433-3.488-3.488a5.81,5.81,0,0,0,1.216.129h.028l3.485-.016a1.27,1.27,0,0,0-.006-2.54h-.006l-3.485.016h-.016A3.225,3.225,0,0,1,28.462,26.4V26h8.7a5.926,5.926,0,0,1,4.324,1.883l.052.055Z" transform="translate(0 -23.462)"/></g></g></g></svg>