<svg xmlns="http://www.w3.org/2000/svg" width="73.515" height="69.764" viewBox="0 0 73.515 69.764"><defs><style>.a{fill:#e98b84;}</style></defs><g transform="translate(0 -13.061)"><g transform="translate(49.071 45.703)"><g transform="translate(0 0)"><path class="a" d="M342.834,240.4a1.078,1.078,0,0,0-1.078,1.078v1.246a1.078,1.078,0,0,0,2.157,0v-1.246A1.078,1.078,0,0,0,342.834,240.4Z" transform="translate(-341.756 -240.398)"/></g></g><g transform="translate(57.481 45.703)"><g transform="translate(0 0)"><path class="a" d="M401.409,240.4a1.078,1.078,0,0,0-1.078,1.078v1.246a1.078,1.078,0,0,0,2.157,0v-1.246A1.078,1.078,0,0,0,401.409,240.4Z" transform="translate(-400.331 -240.398)"/></g></g><g transform="translate(50.958 51.708)"><path class="a" d="M361.243,282.424a1.078,1.078,0,0,0-1.505.246,2.055,2.055,0,0,1-2.885,0,1.078,1.078,0,0,0-1.751,1.26,4.169,4.169,0,0,0,6.386,0A1.078,1.078,0,0,0,361.243,282.424Z" transform="translate(-354.899 -282.221)"/></g><g transform="translate(14.571 47.336)"><g transform="translate(0 0)"><path class="a" d="M102.558,251.769a1.078,1.078,0,0,0-1.078,1.078v1.206a1.078,1.078,0,1,0,2.157,0v-1.206A1.078,1.078,0,0,0,102.558,251.769Z" transform="translate(-101.48 -251.769)"/></g></g><g transform="translate(16.398 53.15)"><path class="a" d="M120.4,292.466a1.078,1.078,0,0,0-1.505.246,1.957,1.957,0,0,1-2.738,0,1.078,1.078,0,1,0-1.751,1.26,4.071,4.071,0,0,0,6.239,0A1.078,1.078,0,0,0,120.4,292.466Z" transform="translate(-114.206 -292.263)"/></g><g transform="translate(41.347 69.248)"><path class="a" d="M0,8.063V3.232q0-.013,0-.025t0-.025v-2.1a1.078,1.078,0,0,1,2.157,0v2.1q0,.013,0,.025t0,.025V8.063A1.078,1.078,0,0,1,0,8.063Z" transform="translate(0 0)"/></g><g transform="translate(25.014 13.061)"><g transform="translate(0 0)"><path class="a" d="M190.649,13.061a6.993,6.993,0,0,0-4.7,1.795A7.042,7.042,0,0,0,174.213,20.1c0,3.418,1.993,6.7,5.765,9.506a26.743,26.743,0,0,0,5.58,3.16,1.079,1.079,0,0,0,.786,0,26.747,26.747,0,0,0,5.58-3.16c3.772-2.8,5.765-6.088,5.765-9.506A7.048,7.048,0,0,0,190.649,13.061Zm-4.7,17.531c-1.851-.82-9.581-4.6-9.581-10.49a4.884,4.884,0,0,1,8.732-3.007,1.078,1.078,0,0,0,1.7,0,4.884,4.884,0,0,1,8.732,3.007C195.532,26,187.8,29.773,185.951,30.592Z" transform="translate(-174.213 -13.061)"/></g></g><g transform="translate(0 29.593)"><g transform="translate(0 0)"><path class="a" d="M67.258,159.512,60.441,157.5c-.032-.01-.065-.018-.1-.025l-1.07-.215a.548.548,0,0,1-.439-.536v-.514a10.886,10.886,0,0,0,5.88-6.685h.824a2.641,2.641,0,0,0,2.638-2.638v-1.728a2.641,2.641,0,0,0-.919-2v-1.9a11.255,11.255,0,0,0-11.242-11.242H52.694a11.255,11.255,0,0,0-11.242,11.242v1.9a2.641,2.641,0,0,0-.919,2v1.728a2.641,2.641,0,0,0,2.638,2.638H44a10.888,10.888,0,0,0,5.686,6.6v.641a.548.548,0,0,1-.439.536l-.859.173h0l-.014,0c-.034.007-.067.015-.1.025l-6.816,2.007a8.755,8.755,0,0,0-5.346,4.509,8.183,8.183,0,0,0-1.7-1.937l2.627-.832a3.448,3.448,0,0,0,2.4-3.49,46.543,46.543,0,0,0-3.6-15.028c-3.419-8.124-8.319-11.235-11.964-12.4a5.114,5.114,0,0,0-8.309,0c-3.645,1.165-8.545,4.277-11.964,12.4a46.538,46.538,0,0,0-3.6,15.028,3.448,3.448,0,0,0,2.4,3.49l2.627.832a8.115,8.115,0,0,0-2.943,6.223v12.047a1.078,1.078,0,0,0,1.078,1.078l69.267-.007a1.078,1.078,0,0,0,1.078-1.078v-12.47A8.769,8.769,0,0,0,67.258,159.512ZM33.851,143.57a44.329,44.329,0,0,1,3.431,14.316,1.293,1.293,0,0,1-.9,1.309l-4.57,1.447q-.128-.042-.256-.08l-6.245-1.839c-.03-.009-.061-.017-.092-.023l-.979-.2a.41.41,0,0,1-.329-.4v-.495c.041-.018.081-.039.123-.058.113-.051.225-.1.336-.158l.163-.084c.111-.058.222-.116.331-.178l.14-.081q.178-.1.352-.215l.1-.065q.2-.132.4-.273l.039-.027a10.563,10.563,0,0,0,3.882-5.407h.8a2.591,2.591,0,0,0,2.588-2.588V146.8c0-.079,0-.158-.012-.235,0-.019,0-.037-.006-.056-.009-.076-.02-.152-.035-.227l0-.014c-.015-.07-.033-.14-.054-.208l-.016-.052c-.023-.071-.048-.141-.077-.209l-.01-.022c-.027-.062-.057-.123-.088-.183l-.024-.046c-.036-.064-.073-.127-.114-.188l-.018-.026q-.056-.081-.117-.157l-.031-.038c-.047-.056-.1-.11-.147-.161l-.027-.026q-.069-.067-.143-.13l-.036-.03q-.085-.069-.175-.131l-.034-.022c-.028-.018-.055-.037-.083-.054,0-.179-.006-.357-.014-.535,0-.065-.007-.129-.011-.193q-.01-.166-.025-.331c-.007-.085-.015-.17-.024-.254,0-.029-.008-.058-.011-.087a12.173,12.173,0,0,0-4.087-7.753h0q-.31-.272-.638-.523l-.031-.025c-.067-.051-.136-.1-.2-.149s-.161-.116-.242-.172l-.167-.114q-.181-.121-.366-.235l-.065-.041q-.234-.142-.475-.273l-.074-.04q-.207-.111-.419-.215l-.1-.048-.12-.058q0-.11,0-.221c0-.095,0-.189-.008-.283,0,0,0-.009,0-.013C27.775,134.421,31.245,137.378,33.851,143.57Zm-10.059,5.736a1.078,1.078,0,0,0,1.078-1.078v-1.206a1.073,1.073,0,0,0-.219-.649h3.437v1.582q0,.224-.012.448c0,.01,0,.019,0,.029-.008.141-.019.283-.035.424v.01q-.024.219-.06.437l0,.022q-.034.206-.079.411c-.013.06-.027.119-.041.179q-.031.127-.065.252c-.016.058-.032.115-.049.173s-.034.115-.053.172-.041.124-.063.185q-.048.137-.1.272l-.044.112q-.139.343-.307.671l-.009.017a8.468,8.468,0,0,1-2.325,2.8l-.03.024q-.089.068-.179.134l-.1.072q-.118.084-.24.163c-.056.036-.111.073-.168.108l-.13.079c-.077.046-.154.09-.232.133l-.095.052q-.134.072-.27.138l-.1.047c-.1.05-.209.1-.316.143l-.037.015q-.146.061-.294.116l-.11.04c-.066.024-.132.045-.2.067s-.12.04-.181.059-.124.036-.186.053q-.158.044-.317.082c-.071.017-.142.034-.214.049s-.116.022-.174.033-.14.026-.21.038l-.171.025q-.112.016-.225.029l-.16.017c-.085.008-.17.014-.256.02l-.134.008c-.131.006-.262.01-.395.01s-.271,0-.406-.01l-.123-.008c-.094-.006-.188-.012-.282-.022l-.137-.015c-.089-.01-.178-.021-.267-.034l-.134-.021q-.135-.022-.269-.048l-.122-.025c-.095-.02-.189-.042-.282-.065l-.1-.026c-.106-.028-.21-.058-.314-.089l-.063-.019a8.317,8.317,0,0,1-1.465-.619l-.044-.024q-.156-.085-.307-.177l-.076-.047c-.069-.042-.136-.086-.2-.131s-.1-.07-.157-.106l-.056-.04a8.492,8.492,0,0,1-2.975-3.775l-.012-.03q-.08-.2-.149-.411c-.008-.023-.016-.047-.024-.07-.019-.06-.037-.121-.056-.182s-.032-.11-.047-.166q-.031-.113-.059-.228c-.016-.067-.032-.134-.047-.2q-.044-.2-.077-.4c0-.01,0-.02-.005-.03q-.035-.214-.058-.429c0-.006,0-.012,0-.018-.015-.139-.026-.278-.034-.418,0-.012,0-.023,0-.035q-.012-.224-.012-.448v-1.733l.029-.014q.059-.025.117-.054l.046-.023c.051-.027.1-.056.15-.088l0,0c.048-.031.094-.065.139-.1l.04-.032q.05-.041.1-.086l.037-.035a2.018,2.018,0,0,0,.228-.267l.029-.043q.037-.055.071-.112l.026-.045c.029-.052.056-.106.081-.161A1.075,1.075,0,0,0,12.5,145l.8-2.984a.383.383,0,0,1,.619-.194c3.859,3.259,6.943,4.286,9.055,4.5a1.074,1.074,0,0,0-.257.7v1.206A1.078,1.078,0,0,0,23.792,149.306Zm6.41-.4c.006-.065.009-.13.013-.2.006-.085.013-.169.018-.255.008-.168.013-.336.013-.5v-1.582h.326A.432.432,0,0,1,31,146.8v1.673a.432.432,0,0,1-.431.431ZM16.813,132.749c.015-.076.032-.151.053-.225,0-.015.009-.029.014-.044.018-.062.038-.123.06-.183l.024-.061q.034-.087.074-.171l.021-.045a2.963,2.963,0,0,1,5.326,0l.021.046c.026.056.05.112.073.169.008.021.016.041.024.062.022.06.042.12.06.182,0,.015.01.029.014.044q.031.111.053.224c0,.006,0,.013,0,.019-.139-.034-.278-.065-.418-.094l-.108-.022c-.167-.033-.334-.064-.5-.09l-.039-.007c-.179-.027-.359-.049-.54-.069l-.106-.011q-.267-.026-.536-.041l-.1,0c-.188-.009-.377-.014-.567-.014s-.378.006-.567.014l-.1,0q-.269.014-.536.041l-.106.011c-.18.019-.36.041-.54.069l-.039.007c-.168.026-.334.056-.5.09l-.109.022c-.14.029-.279.06-.417.094C16.811,132.762,16.811,132.756,16.813,132.749ZM15,135.757l.063-.034q.4-.209.813-.382l.1-.038q.146-.059.294-.113l.2-.07q.119-.041.238-.079l.213-.065q.119-.035.238-.066c.071-.019.143-.037.214-.055s.165-.038.248-.056l.209-.043c.087-.017.176-.032.264-.046.067-.011.134-.022.2-.032.094-.013.189-.025.284-.035.062-.007.125-.015.187-.021.106-.01.213-.017.32-.024.052,0,.1-.008.157-.011.16-.008.32-.012.482-.012s.322,0,.482.012c.053,0,.105.007.158.011.107.007.214.014.319.024.063.006.125.014.188.021.095.011.189.022.283.035.067.01.134.021.2.032.088.014.176.029.263.046.07.013.14.028.21.043s.165.036.247.056l.215.055q.119.032.237.066l.214.065q.119.038.237.079l.2.071c.1.036.2.074.294.113l.094.038q.417.174.814.383l.062.033q.162.087.321.179l.1.058q.141.084.279.174l.1.067c.1.066.2.135.3.2.078.056.154.113.231.171l.127.1q.121.1.239.194l.05.042a10.115,10.115,0,0,1,3.5,6.544c.006.05.012.1.017.149.007.07.012.141.017.211.007.089.013.179.017.268,0,.033,0,.067,0,.1H23.877c-3.294,0-6.784-2.532-8.571-4.041-.052-.044-.106-.085-.161-.124l-.047-.032q-.066-.045-.134-.086l-.04-.024q-.086-.049-.175-.091l-.04-.018q-.072-.033-.145-.06l-.053-.02c-.058-.021-.117-.04-.177-.056l-.011,0c-.063-.017-.127-.03-.191-.042l-.055-.009q-.076-.012-.152-.02l-.049-.005q-.1-.008-.195-.009h-.011l-.042,0c-.041,0-.083,0-.125,0l-.065.005-.116.013-.065.01c-.041.007-.082.015-.122.024l-.056.012c-.059.014-.118.03-.176.048a2.527,2.527,0,0,0-1.692,1.769l-.734,2.756H9.7q0-.05,0-.1c0-.09.01-.18.017-.269.005-.07.01-.141.017-.211,0-.05.011-.1.017-.15a10.115,10.115,0,0,1,3.5-6.543l.05-.042q.118-.1.239-.195l.125-.1c.077-.059.155-.117.234-.174.1-.069.194-.137.293-.2l.106-.068c.092-.059.184-.117.277-.173l.1-.058C14.786,135.874,14.892,135.814,15,135.757ZM3.059,159.2a1.293,1.293,0,0,1-.9-1.309A44.332,44.332,0,0,1,5.59,143.57c2.606-6.193,6.077-9.149,9.018-10.544,0,0,0,.009,0,.013-.005.094-.008.188-.008.283q0,.11,0,.221l-.119.058-.1.048q-.211.1-.417.214l-.076.04q-.24.132-.474.273l-.067.042q-.184.114-.364.234l-.169.115q-.121.084-.24.171c-.069.05-.138.1-.205.151l-.022.018a12.188,12.188,0,0,0-4.733,8.283c0,.029-.008.058-.011.087-.009.084-.016.169-.024.254q-.015.165-.025.331c0,.064-.008.129-.011.193-.008.178-.014.356-.014.535-.028.017-.056.036-.083.054l-.034.022q-.09.062-.175.131l-.036.03q-.074.062-.143.13l-.027.026c-.051.052-.1.106-.147.161l-.031.038c-.041.051-.08.1-.117.157l-.018.026c-.041.061-.078.123-.114.188l-.024.046c-.032.06-.061.12-.088.183l-.01.022c-.029.068-.054.138-.077.209l-.016.052c-.02.068-.039.137-.054.208l0,.014c-.015.074-.026.15-.035.227,0,.019,0,.037-.006.056-.007.078-.012.156-.012.235v1.673a2.591,2.591,0,0,0,2.588,2.588h.795l0,.007c.021.067.045.133.067.2a10.455,10.455,0,0,0,5.4,6.156l.041.02c.058.028.114.058.173.084v.607a.41.41,0,0,1-.329.4l-.8.161c-.031.006-.061.014-.092.023l-6.246,1.839-.006,0q-.125.037-.25.078Zm6.15-10.738c0,.083.011.166.017.248,0,.067.008.134.014.2H8.871a.432.432,0,0,1-.431-.431V146.8a.432.432,0,0,1,.431-.431H9.2v1.582C9.2,148.122,9.2,148.29,9.209,148.458Zm25.985,30.818h-2.97V169.1a2.545,2.545,0,0,0-.5-1.507,7.282,7.282,0,0,0-11.453-.322.715.715,0,0,1-1.109,0,7.282,7.282,0,0,0-11.453.322,2.545,2.545,0,0,0-.5,1.507v1.932a1.078,1.078,0,1,0,2.157,0v-1.932a.375.375,0,0,1,.071-.222,5.125,5.125,0,0,1,8.063-.228,2.872,2.872,0,0,0,4.425,0,5.125,5.125,0,0,1,8.063.228.375.375,0,0,1,.071.222v10.171H9.375v-8.239a1.078,1.078,0,0,0-2.157,0v8.239H4.248V168.307a5.952,5.952,0,0,1,3.965-5.585l.05-.018.09-.028c.047-.015.094-.031.141-.045h0l6.2-1.826.755-.152q.11-.022.217-.054c.024-.007.047-.016.071-.024.046-.015.092-.03.137-.047.028-.011.055-.024.082-.036s.079-.033.118-.052.056-.03.083-.045.072-.038.106-.059.055-.036.082-.054.065-.042.1-.065.053-.041.079-.061.06-.047.089-.071.05-.046.075-.068.055-.051.081-.077.046-.05.069-.075.05-.054.074-.083.043-.054.064-.081.045-.058.066-.088.038-.057.057-.086.04-.061.058-.093.034-.06.05-.091.035-.065.051-.1.029-.063.043-.1.029-.067.042-.1.024-.066.035-.1.023-.07.033-.106.018-.068.027-.1.017-.073.025-.11.012-.07.018-.1.011-.075.015-.113.007-.071.009-.107c0-.021,0-.041.005-.061l.056.01c.078.016.157.03.236.044s.186.035.279.05.185.026.278.038.161.022.243.031c.105.011.211.019.317.027.071.005.141.012.212.016.111.006.222.008.333.011.068,0,.135,0,.2.005h.058c.1,0,.19,0,.285-.007.064,0,.129,0,.193,0,.119-.005.237-.015.355-.024.06,0,.119-.008.179-.014.121-.012.241-.027.36-.043.057-.007.113-.013.17-.022.126-.019.252-.041.376-.064.041-.008.082-.013.123-.021,0,.009,0,.017,0,.026,0,.032.007.064.011.1s.009.081.016.121.012.064.019.1.016.078.026.116.017.063.027.094.023.075.035.112.022.061.034.091.029.072.044.107.027.059.041.088.034.068.053.1.032.057.048.085.04.065.061.1.036.054.055.08.045.061.069.091.04.051.061.076.05.058.076.086.044.047.067.07.055.053.084.079.047.044.072.064.06.049.091.073.05.039.076.058.065.045.1.066.052.035.079.051.071.04.107.059.054.03.081.044.078.035.117.052.053.024.08.035c.045.017.091.032.136.047.024.008.046.017.07.024.07.021.142.038.215.053l.933.188,6.2,1.826q.117.034.231.073l.026.009a5.952,5.952,0,0,1,3.988,5.593Zm25.235-18.02,1.47,2.6-4.272,6.617Zm-5.48,3.273h-1.19l-.421-.729,1.016-.928,1.016.928Zm.275,6.429-.476,1.567-.394,1.3-.87-2.861.591-4.274h.552Zm-3.746-10.544a11.3,11.3,0,0,0,2,.336l-2.237,2.042a1.069,1.069,0,0,0-.177.216l-.893-2.937Zm-.037-2.24a2.7,2.7,0,0,0,.394-1.283q.155.037.311.069l.094.018q.2.039.4.071l.1.016c.143.021.286.039.429.055l.142.015q.208.02.418.032l.151.008q.213.009.426.011h.055l.082,0c.148,0,.3,0,.443-.011l.1-.006q.213-.012.425-.032l.068-.006c.16-.016.319-.037.477-.061l.074-.011c.159-.025.318-.053.476-.085l.06-.012.12-.025a2.7,2.7,0,0,0,.438,1.276l-.441.116a9.177,9.177,0,0,1-4.656,0Zm3.787,2.575a11.289,11.289,0,0,0,2-.336l1.305-.343-.893,2.937a1.068,1.068,0,0,0-.177-.216Zm9.926-13.559c.008-.1.017-.207.022-.311q.013-.263.013-.527v-1.669h.352a.46.46,0,0,1,.092.01l.006,0a.515.515,0,0,1,.058.019c.012,0,.024.006.035.012h0a.482.482,0,0,1,.284.438v1.728a.481.481,0,0,1-.481.481h-.4C65.147,147.312,65.149,147.251,65.154,147.19Zm-21.983.183h0a.481.481,0,0,1-.481-.481v-1.728a.482.482,0,0,1,.285-.438.49.49,0,0,1,.086-.029l.015,0a.461.461,0,0,1,.092-.01h.352v1.669q0,.263.013.527c.005.1.014.207.022.31,0,.061.007.122.013.184Zm1.735-8.182a1.069,1.069,0,0,0-.12.042c-.017.007-.033.016-.05.024s-.042.019-.063.031-.039.024-.058.037-.032.019-.047.03-.038.031-.057.046-.027.021-.039.032-.036.036-.053.054-.023.023-.034.035-.032.04-.047.06-.02.025-.029.038-.027.044-.04.066-.017.027-.024.041-.022.047-.033.071-.012.025-.017.037l-.006.015,0,0,0,.009h0l0,.006c-.056.152-.108.3-.156.459l0,.01,0,.006a10.75,10.75,0,0,0-.413,1.866v-.948a9.1,9.1,0,0,1,9.085-9.085h3.321a9.1,9.1,0,0,1,9.085,9.085v.95c-.007-.058-.017-.115-.025-.173l0-.014-.014-.1v-.006q-.035-.223-.079-.443v0l-.024-.115,0-.007q-.043-.2-.093-.4l0-.01-.01-.041,0-.013v0l0-.015c-.006-.023-.017-.044-.024-.066s-.021-.066-.036-.1-.025-.045-.037-.067-.031-.06-.05-.088-.032-.04-.048-.06-.039-.052-.062-.076-.04-.036-.06-.055-.045-.043-.069-.061-.05-.033-.075-.049-.046-.032-.071-.045-.059-.027-.09-.039-.046-.022-.07-.03-.066-.018-.1-.026-.047-.014-.072-.018-.066-.006-.1-.008-.05-.006-.076-.006h-.038a1.078,1.078,0,0,0-.538.151,8.9,8.9,0,0,1-4.557,1.034,19.481,19.481,0,0,1-5.674-1.184c-2.351-.737-4.775-1.5-7.24-1.079l-.073.012-.025,0C45.406,139.063,45.157,139.12,44.906,139.191Zm.969,9.008q-.045-.21-.081-.42l-.005-.028q-.036-.223-.061-.448l0-.016c-.016-.145-.027-.291-.036-.436,0-.011,0-.022,0-.033q-.013-.232-.013-.464v-2.731c0-.006,0-.011,0-.017h0c0-.085,0-.171,0-.256,0-.04,0-.08,0-.122s0-.059,0-.089c0-.007,0-.014,0-.022l.005-.073c.006-.091.012-.182.021-.273h0c0-.041.009-.081.013-.121l.006-.048c.009-.081.019-.161.031-.242.008-.059.018-.118.028-.177.013-.076.026-.152.041-.228q.017-.09.036-.179c.016-.074.033-.147.051-.22l0-.017c.013-.053.026-.106.04-.16.02-.074.041-.147.062-.219l.005-.017c.045-.008.091-.013.136-.02.079-.012.157-.026.236-.035.1-.012.2-.019.3-.027l.077-.007a13.5,13.5,0,0,1,4.622.793c.313.1.627.193.944.293a30.256,30.256,0,0,0,4.272,1.112,12.968,12.968,0,0,0,2.047.17c.342,0,.675-.013,1-.033.239-.015.474-.034.7-.06l.052-.005c.117-.014.231-.031.345-.048.068-.01.138-.018.2-.029s.136-.026.2-.038c.11-.02.22-.038.327-.061.069-.014.136-.032.2-.048.1-.024.207-.046.308-.072s.194-.055.291-.083c.068-.02.137-.037.2-.058s.157-.054.236-.081.161-.053.239-.082l0,.016c.013.128.022.256.029.384h0l0,.092a.018.018,0,0,0,0,0c.006.129.01.258.01.388h0c0,.005,0,.011,0,.017v2.731q0,.232-.013.464c0,.011,0,.022,0,.033-.008.145-.02.291-.036.436l0,.016q-.025.224-.061.447l-.005.029q-.035.211-.08.42a8.709,8.709,0,0,1-5.883,6.436l-.077.023q-.156.048-.315.09l-.113.028q-.142.035-.286.066l-.132.027q-.137.027-.275.049l-.141.022c-.091.013-.183.025-.275.035l-.143.016c-.1.009-.194.016-.292.022l-.128.008c-.14.007-.28.011-.421.011s-.287,0-.429-.011c-.049,0-.1-.007-.147-.01-.093-.006-.186-.012-.277-.021-.06-.006-.12-.014-.18-.021-.079-.009-.159-.019-.237-.03s-.134-.022-.2-.033-.139-.024-.209-.037-.147-.031-.22-.047-.122-.027-.183-.042c-.079-.02-.157-.041-.235-.063l-.161-.046c-.082-.024-.163-.05-.244-.077l-.15-.051c-.08-.028-.159-.057-.237-.088A8.709,8.709,0,0,1,45.875,148.2Zm2.4,13.057,2.8,9.213-4.272-6.617ZM67.2,179.269V168.934a1.078,1.078,0,0,0-2.157,0v10.335H43.5v-3.214a1.078,1.078,0,0,0-2.157,0v3.214h-4V167.877a6.6,6.6,0,0,1,4.71-6.3l4.268-1.257-1.6,2.833a1.457,1.457,0,0,0,.077,1.561l8.647,13.393.005.007.017.026.014.019c.014.019.028.037.042.055l.016.018c.013.015.027.031.041.045l0,0,.027.025.024.022c.021.019.043.037.066.054l.015.012.012.009.008.005c.03.021.061.04.093.057l.02.011.019.009.03.016.036.014.05.02.024.01h0l.045.013.045.012.056.011.035.006.032.005a1.074,1.074,0,0,0,.125.008h0a1.072,1.072,0,0,0,.125-.008l.032-.005.034-.006.057-.011.045-.012.047-.013h0l.025-.01.05-.02.036-.014.031-.016.018-.008.021-.012a1.067,1.067,0,0,0,.093-.057l.008-.005.013-.01.013-.01c.023-.018.046-.036.067-.055l.024-.023q.036-.034.069-.072l.016-.018c.015-.018.029-.037.043-.056l.012-.016.018-.027.005-.007,8.647-13.393a1.457,1.457,0,0,0,.078-1.561l-1.6-2.834,4.269,1.257a6.6,6.6,0,0,1,4.71,6.3v11.391H67.2Z" transform="translate(0 -128.201)"/></g></g></g></svg>