<svg xmlns="http://www.w3.org/2000/svg" width="63.196" height="68.186" viewBox="0 0 63.196 68.186"><defs><style>.a{fill:#e98b84;}</style></defs><path class="a" d="M191.82,289.1a1,1,0,0,0,1,1h10.108a1,1,0,0,0,0-2H192.819A1,1,0,0,0,191.82,289.1Zm0,0" transform="translate(-166.275 -249.73)"/><path class="a" d="M217.155,310.355h-4.942a1,1,0,0,0,0,2h4.942a1,1,0,0,0,0-2Zm0,0" transform="translate(-183.086 -269.024)"/><path class="a" d="M61.532,62.427H57.194V55a6.024,6.024,0,0,0,5.493-7.1,1.5,1.5,0,0,0-1.205-1.206,6.024,6.024,0,0,0-1.886-.047,5.131,5.131,0,0,0,.372-.925l1.065-3.631a1.245,1.245,0,0,0-.844-1.546c-.117-.034-.232-.063-.348-.09l.294-1.464a1.225,1.225,0,0,0-.959-1.437,5.428,5.428,0,0,0-1.057-.109c-.071,0-.141.005-.211.008a5.464,5.464,0,0,0-.715-1.285v-7h0c0-.006,0-.011,0-.016V23.469A18,18,0,0,0,42.538,5.805a5.858,5.858,0,0,0-10-4.089l-.94.94-.94-.94a5.858,5.858,0,0,0-10,4.089A18,18,0,0,0,6,23.469V36.217A5.43,5.43,0,0,0,5.365,37.3c-.125-.009-.252-.015-.38-.015a5.573,5.573,0,0,0-.83.065,1.222,1.222,0,0,0-1.024,1.393l.225,1.475c-.117.021-.234.045-.353.074a1.246,1.246,0,0,0-.914,1.5l.894,3.677a5.283,5.283,0,0,0,.428,1.154,6,6,0,0,0-1.755.063A1.5,1.5,0,0,0,.45,47.891,6.025,6.025,0,0,0,6,55v7.427H1.665A1.667,1.667,0,0,0,0,64.092v2.429a1.667,1.667,0,0,0,1.665,1.665H61.532A1.666,1.666,0,0,0,63.2,66.521V64.092A1.666,1.666,0,0,0,61.532,62.427ZM60.387,48.583c.127,0,.256.006.384.018a4.028,4.028,0,0,1-3.578,4.39V50.154a3.962,3.962,0,0,1,.341-.391A4.006,4.006,0,0,1,60.387,48.583Zm-1.5-6.273-.833,2.841A3.254,3.254,0,0,1,56.634,47a15.366,15.366,0,0,0-.375-1.646c-.118-.41-.25-.8-.394-1.161a4.35,4.35,0,0,1,1.313-1.463A2.582,2.582,0,0,1,58.884,42.31Zm-2.223-2.381a2.248,2.248,0,0,1,1.345-.493l-.187.934a4.556,4.556,0,0,0-1.735.687,5.022,5.022,0,0,0-.532.4A3.979,3.979,0,0,1,56.661,39.929Zm-.688-1.937a4.481,4.481,0,0,0-.548.367,4.9,4.9,0,0,0-.545.5,4.84,4.84,0,0,0-.519-.528,4.394,4.394,0,0,0-.58-.424,3.433,3.433,0,0,1,1.118-1.25A3.427,3.427,0,0,1,55.974,37.992ZM45.623,59.063a1,1,0,0,0-1,1v2.365H32.6V47.91h7.717a1.667,1.667,0,0,0,1.665-1.665V35.452a1.667,1.667,0,0,0-1.665-1.665H30.4a1,1,0,0,0,0,2h9.582V45.912H23.215V35.785h2.524a1,1,0,0,0,0-2H22.882a1.666,1.666,0,0,0-1.665,1.665V46.245a1.666,1.666,0,0,0,1.665,1.665H30.6V62.427H18.573V38.554a11.709,11.709,0,0,0-4.338-9.1,17.681,17.681,0,0,0,12.3-15.3l3.684,3.682a1.958,1.958,0,0,0,2.766,0l3.683-3.682a17.681,17.681,0,0,0,12.3,15.3,11.7,11.7,0,0,0-4.338,9.1V55.268a1,1,0,0,0,2,0V38.554a9.727,9.727,0,0,1,4.987-8.49q.443.066.892.111v6.045a5.475,5.475,0,0,0-.638,1.076c-.125-.01-.252-.015-.38-.015a5.573,5.573,0,0,0-.83.065,1.222,1.222,0,0,0-1.024,1.393l.225,1.475c-.117.021-.234.045-.352.074a1.246,1.246,0,0,0-.915,1.5l.894,3.677a5.285,5.285,0,0,0,.429,1.154,6.009,6.009,0,0,0-1.756.063,1.5,1.5,0,0,0-1.205,1.205A6.025,6.025,0,0,0,52.5,55v7.427H46.622V60.062A1,1,0,0,0,45.623,59.063ZM10.681,42.729a2.582,2.582,0,0,1,1.706-.419l-.833,2.841A3.253,3.253,0,0,1,10.136,47a15.477,15.477,0,0,0-.374-1.646c-.118-.41-.25-.8-.394-1.161A4.334,4.334,0,0,1,10.681,42.729ZM9.055,41.458a3.969,3.969,0,0,1,1.109-1.529,2.245,2.245,0,0,1,1.344-.493l-.187.934a4.559,4.559,0,0,0-1.735.687A5.121,5.121,0,0,0,9.055,41.458Zm4.834,7.125c.128,0,.256.006.384.018a4.028,4.028,0,0,1-3.578,4.39V50.153a4.008,4.008,0,0,1,3.193-1.57ZM10.7,55a6.024,6.024,0,0,0,5.493-7.1,1.5,1.5,0,0,0-1.205-1.206,6.006,6.006,0,0,0-1.887-.047,5.14,5.14,0,0,0,.374-.925l1.064-3.63a1.245,1.245,0,0,0-.844-1.547c-.117-.034-.232-.063-.348-.089l.294-1.465a1.224,1.224,0,0,0-.959-1.437,5.387,5.387,0,0,0-1.057-.109c-.071,0-.14.005-.211.008a5.456,5.456,0,0,0-.715-1.286V30.176q.451-.044.9-.112a9.751,9.751,0,0,1,2.18,1.663,9.659,9.659,0,0,1,2.8,6.828V62.427H10.7ZM53.053,39.845a3.336,3.336,0,0,1,.668.823c-.048.108-.1.22-.14.334l0,0a4.555,4.555,0,0,0-1.7-.768l-.144-.942A2.255,2.255,0,0,1,53.053,39.845Zm-3.028,11.99A4.031,4.031,0,0,1,48.863,48.6c.128-.012.256-.018.384-.018a4.014,4.014,0,0,1,3.253,1.65V53A4,4,0,0,1,50.025,51.835ZM51.421,45l-.7-2.877a2.588,2.588,0,0,1,1.684.5,5.975,5.975,0,0,1,1.934,3.288,13.422,13.422,0,0,1,.35,1.575h-.106A3.245,3.245,0,0,1,51.421,45ZM54.5,49.479h.7V62.427h-.7Zm0-14.855V30.257c.232,0,.465-.011.7-.023V34.59a1.365,1.365,0,0,0-.247-.03h-.033A1.428,1.428,0,0,0,54.5,34.624Zm.514-13.576A15.636,15.636,0,0,1,44.983,8.572,16.024,16.024,0,0,1,55.012,21.049Zm-12.98-12.8c.068-.153.131-.308.186-.467.228.044.455.091.68.144a17.647,17.647,0,0,0,12.3,15.3c0,.082,0,.163,0,.245v1.2A15.644,15.644,0,0,1,42,9.222C42,8.9,42.01,8.572,42.031,8.246ZM44.67,21.174A17.59,17.59,0,0,0,55.2,26.689v1.546q-.481.029-.956.029A15.66,15.66,0,0,1,38.594,12.624c0-.135,0-.269.006-.4l1.468-1.467A17.566,17.566,0,0,0,44.67,21.174ZM23.785,3.128a3.863,3.863,0,0,1,5.461,0l1.646,1.645a1,1,0,0,0,1.412,0L33.95,3.128a3.86,3.86,0,1,1,5.461,5.457L31.6,16.4,23.785,8.586a3.859,3.859,0,0,1,0-5.458ZM18.213,8.572a15.47,15.47,0,0,1-3.341,7.674,15.543,15.543,0,0,1-6.687,4.8A16.024,16.024,0,0,1,18.213,8.572ZM8,26.687a17.531,17.531,0,0,0,8.644-3.749,1,1,0,0,0-1.256-1.553A15.54,15.54,0,0,1,8,24.667v-1.2c0-.082,0-.163,0-.245a17.532,17.532,0,0,0,8.419-5.719A17.455,17.455,0,0,0,20.3,7.923q.338-.08.68-.146c.055.159.118.315.186.469.02.326.034.651.034.976a15.543,15.543,0,0,1-2.749,8.856,1,1,0,1,0,1.645,1.133,17.5,17.5,0,0,0,3.033-8.459L24.6,12.22c0,.134.006.269.006.4A15.661,15.661,0,0,1,8.956,28.263c-.316,0-.636-.01-.956-.03V26.687Zm0,3.547c.234.012.466.02.7.023V34.59a1.4,1.4,0,0,0-.247-.03H8.419A1.422,1.422,0,0,0,8,34.624Zm.4,6.427a3.436,3.436,0,0,1,1.074,1.331,4.441,4.441,0,0,0-.548.367,4.852,4.852,0,0,0-.545.5,4.892,4.892,0,0,0-.52-.528,4.471,4.471,0,0,0-.579-.424A3.428,3.428,0,0,1,8.4,36.661Zm.3,12.818V62.427H8V49.479ZM6.556,39.845a3.341,3.341,0,0,1,.668.822c-.048.109-.1.221-.14.334l0,0a4.564,4.564,0,0,0-1.7-.768l-.144-.942A2.258,2.258,0,0,1,6.556,39.845Zm-.647,2.773a5.978,5.978,0,0,1,1.934,3.288,13.381,13.381,0,0,1,.349,1.575H8.086A3.245,3.245,0,0,1,4.924,45l-.7-2.877A2.589,2.589,0,0,1,5.909,42.618ZM3.528,51.835A4.029,4.029,0,0,1,2.366,48.6c.127-.012.256-.018.384-.018A4.014,4.014,0,0,1,6,50.234V53A4,4,0,0,1,3.528,51.835ZM61.2,66.188H2V64.425H61.2Zm0,0"/><path class="a" d="M182.685,32.084a1,1,0,0,0,1.413,0l6.636-6.633a3.194,3.194,0,0,0-4.52-4.515l-1.646,1.646a1.666,1.666,0,0,1-2.354,0l-1.646-1.646a3.194,3.194,0,1,0-4.519,4.515Zm-5.223-9.735a1.2,1.2,0,0,1,1.694,0l1.646,1.646a3.663,3.663,0,0,0,5.178,0l1.645-1.645a1.2,1.2,0,1,1,1.695,1.69l-5.93,5.928-5.929-5.928a1.194,1.194,0,0,1,0-1.689Zm0,0" transform="translate(-151.793 -17.336)"/></svg>