<svg xmlns="http://www.w3.org/2000/svg" xmlns:xlink="http://www.w3.org/1999/xlink" width="50" height="50" viewBox="0 0 50 50"><defs><style>.a{fill:#f0f0f0;}.b{clip-path:url(#a);}.c{fill:#767676;stroke:#767676;stroke-miterlimit:10;stroke-width:0.3px;}</style><clipPath id="a"><rect class="a" width="50" height="50" transform="translate(262 20)"/></clipPath></defs><g class="b" transform="translate(-262 -20)"><g transform="translate(272 30)"><path class="c" d="M15,30c-.383,0-.783-.018-1.222-.054l-.072-.006-.076-.006c-.391-.036-.795-.089-1.2-.159l-.05-.009-.05-.009A14.853,14.853,0,0,1,8.7,28.608l-.023-.01-.055-.025c-.336-.158-.671-.332-1.026-.534L7.529,28l0,0L7.4,27.923c-.312-.185-.613-.377-.9-.572-.09-.062-.18-.127-.266-.19-.3-.219-.565-.42-.8-.615l-.045-.035c-.018-.013-.035-.026-.052-.04l-.487-.41.014-.013A15,15,0,1,1,30,15a14.961,14.961,0,0,1-4.912,11.091l.014.013-.5.417c-.028.024-.057.045-.086.066s-.046.034-.069.052c-.219.178-.449.353-.7.536l-.042.03c-.084.061-.171.123-.258.183-.253.173-.535.352-.862.545-.079.047-.159.093-.239.138-.321.181-.653.353-.988.51l-.082.038-.042.019a14.878,14.878,0,0,1-3.577,1.121l-.1.018c-.4.069-.8.122-1.188.157l-.077.006-.075.006C15.77,29.982,15.374,30,15,30ZM15,5.455c-1.876,0-3.227.456-4.017,1.355a3.3,3.3,0,0,0-.761,2.378l.005.071V12.3l-.18.163a.89.89,0,0,0-.3.667v1.934a.9.9,0,0,0,.419.759l.186.121.05.216a9.113,9.113,0,0,0,1.637,3.39l.125.152v1.965a2.307,2.307,0,0,1-1.2,2.026L6.646,26.042l-.052.029.03.024.043.034c.223.168.462.334.73.509l.237.152c.3.185.565.342.821.478l.073.038.046.023c.336.175.641.321.931.445l.007,0c.328.14.669.271,1.015.389l.065.022a13.76,13.76,0,0,0,2.121.529l.046.009c.327.053.674.1,1.031.127l.119.009.058,0c.393.029.721.042,1.034.042s.647-.014,1.021-.041l.183-.014c.372-.032.706-.073,1.022-.124l.01,0,.02,0c.38-.064.73-.135,1.071-.22s.7-.187,1.042-.3l.014,0,.055-.018a14.051,14.051,0,0,0,1.9-.806l.071-.036.106-.055c.261-.139.525-.291.787-.453.092-.058.182-.116.273-.176.191-.124.387-.259.582-.4l.063-.045c.038-.027.077-.055.115-.083l-.087-.045-4.619-2.309a2.292,2.292,0,0,1-1.275-2.063V19.691l.136-.154c.122-.14.261-.319.4-.517a10.08,10.08,0,0,0,1.361-2.745l.087-.27.272-.084a.911.911,0,0,0,.643-.859V13.128a.892.892,0,0,0-.3-.667l-.18-.163,0-3.109a3.31,3.31,0,0,0-.77-2.39A5.156,5.156,0,0,0,15,5.455Zm0-1.092c2.2,0,3.832.582,4.837,1.729a4.4,4.4,0,0,1,1.027,3.2v2.546a1.98,1.98,0,0,1,.483,1.292v1.934a1.971,1.971,0,0,1-1.137,1.794,11.117,11.117,0,0,1-1.427,2.795c-.112.158-.225.308-.337.445v1.613a1.208,1.208,0,0,0,.672,1.087l4.619,2.309a4.072,4.072,0,0,1,.487.292A13.905,13.905,0,1,0,1.091,15a13.757,13.757,0,0,0,1.248,5.754,13.905,13.905,0,0,0,3.374,4.589,4.161,4.161,0,0,1,.41-.259l4.313-2.353a1.218,1.218,0,0,0,.634-1.068V20.085A10.19,10.19,0,0,1,9.383,16.6a1.983,1.983,0,0,1-.731-1.539V13.128a1.985,1.985,0,0,1,.484-1.292V9.29a4.375,4.375,0,0,1,1.027-3.2C11.169,4.945,12.8,4.363,15,4.363Z"/></g></g></svg>