<svg xmlns="http://www.w3.org/2000/svg" xmlns:xlink="http://www.w3.org/1999/xlink" width="50" height="50" viewBox="0 0 50 50"><defs><style>.a{fill:#f0f0f0;}.b{clip-path:url(#a);}.c{fill:#767676;}</style><clipPath id="a"><rect class="a" width="50" height="50" transform="translate(26 20)"/></clipPath></defs><g class="b" transform="translate(-26 -20)"><g transform="translate(33 27)"><path class="c" d="M2.042,4.083A2.042,2.042,0,1,1,4.083,2.042,2.044,2.044,0,0,1,2.042,4.083Zm0-2.917a.875.875,0,1,0,.875.876A.877.877,0,0,0,2.042,1.166Z" transform="translate(13.322 0)"/><path class="c" d="M.661,0a.661.661,0,1,0,.661.661A.661.661,0,0,0,.661,0Z" transform="translate(0.119 27.631)"/><path class="c" d="M.661,1.321A.661.661,0,1,0,0,.661a.661.661,0,0,0,.661.66Z" transform="translate(31.619 3.131)"/><path class="c" d="M3.139.171a.583.583,0,0,0-.825,0L1.655.83,1,.171A.583.583,0,0,0,.171,1l.659.659-.659.659A.583.583,0,1,0,1,3.139l.659-.659.659.659a.583.583,0,0,0,.825-.825L2.48,1.655,3.139,1A.583.583,0,0,0,3.139.171Z" transform="translate(29.75 31.887)"/><path class="c" d="M3.139.171a.583.583,0,0,0-.825,0L1.655.83,1,.171A.583.583,0,0,0,.171,1l.659.659-.659.659A.583.583,0,1,0,1,3.139l.659-.659.659.659a.583.583,0,0,0,.825-.825L2.48,1.655,3.139,1a.583.583,0,0,0,0-.825Z" transform="translate(0 3.887)"/><path class="c" d="M.957.044a.712.712,0,1,0,.424.914A.712.712,0,0,0,.957.044Z" transform="translate(15.297 24.963)"/><path class="c" d="M14.75,29.567H2.319A2.322,2.322,0,0,1,0,27.247V7.816A2.169,2.169,0,0,1,2.166,5.65H12.834l1.549-4.228A2.177,2.177,0,0,1,16.421,0a2.152,2.152,0,0,1,.742.132L28.836,4.407a2.322,2.322,0,0,1,1.38,2.975L23.534,25.628A2.177,2.177,0,0,1,21.5,27.049a2.145,2.145,0,0,1-.743-.132l-3.838-1.4V27.4A2.169,2.169,0,0,1,14.75,29.567ZM2.166,6.816a1,1,0,0,0-1,1V27.247A1.154,1.154,0,0,0,2.319,28.4H14.75a1,1,0,0,0,1-1V25.086L9.081,22.643a2.322,2.322,0,0,1-1.512-2.2,2.593,2.593,0,0,1-.988.2,2.436,2.436,0,0,1-2.5-2.364c0-1.1,2.521-3.883,3.605-5.03a.585.585,0,0,1,.848,0l.009.01c.155.166.57.613,1.07,1.184l2.791-7.623ZM16.419,1.167a1,1,0,0,0-.941.656L8.8,20.068a1.154,1.154,0,0,0,.685,1.479l11.673,4.275a1,1,0,0,0,1.284-.595L29.12,6.981A1.153,1.153,0,0,0,28.435,5.5L16.762,1.227A1,1,0,0,0,16.419,1.167ZM8.111,14.505C6.764,15.978,5.3,17.8,5.25,18.286a1.119,1.119,0,0,0,.39.839,1.407,1.407,0,0,0,.941.348,1.366,1.366,0,0,0,1.076-.5.573.573,0,0,1,.372-.2l1.13-3.084-.01-.007a.049.049,0,0,1-.012-.009C8.829,15.307,8.484,14.915,8.111,14.505Z" transform="translate(4.572 4.85)"/><path class="c" d="M.957.044a.712.712,0,1,0,.424.914A.712.712,0,0,0,.957.044Z" transform="translate(25.156 28.574)"/><path class="c" d="M.467,1.381A.712.712,0,1,0,.044.467.712.712,0,0,0,.467,1.381Z" transform="translate(18.156 30.908)"/></g></g></svg>