<svg xmlns="http://www.w3.org/2000/svg" xmlns:xlink="http://www.w3.org/1999/xlink" width="50" height="50" viewBox="0 0 50 50"><defs><style>.a{fill:#f0f0f0;}.b{clip-path:url(#a);}.c{fill:#767676;}</style><clipPath id="a"><rect class="a" width="50" height="50" transform="translate(321 20)"/></clipPath></defs><g class="b" transform="translate(-321 -20)"><g transform="translate(330 30)"><path class="c" d="M2.814,5.629A2.814,2.814,0,1,1,5.629,2.814,2.817,2.817,0,0,1,2.814,5.629Zm0-4.057A1.243,1.243,0,1,0,4.057,2.814,1.244,1.244,0,0,0,2.814,1.571Z" transform="translate(10.604 23.982)"/><path class="c" d="M2.814,5.629A2.814,2.814,0,1,1,5.629,2.814,2.817,2.817,0,0,1,2.814,5.629Zm0-4.057A1.243,1.243,0,1,0,4.057,2.814,1.244,1.244,0,0,0,2.814,1.571Z" transform="translate(20.476 23.982)"/><path class="c" d="M12.045,0H.786a.786.786,0,0,0,0,1.571H12.045a.786.786,0,0,0,0-1.571Z" transform="translate(11.938 9.165)"/><path class="c" d="M10.819,0H.786a.786.786,0,0,0,0,1.571H10.819a.786.786,0,0,0,0-1.571Z" transform="translate(12.551 13.245)"/><path class="c" d="M28.086,22.712H9.262a1.578,1.578,0,0,1-1.539-1.255L3.922,3,.474,1.507A.786.786,0,0,1,.786,0,.781.781,0,0,1,1.1.066l3.449,1.5a1.571,1.571,0,0,1,.913,1.124l.495,2.4H30.429a1.571,1.571,0,0,1,1.539,1.888l-2.2,10.667A1.577,1.577,0,0,1,28.231,18.9H8.8l.462,2.245H28.086a.786.786,0,0,1,0,1.571ZM6.279,6.657l2.2,10.667H28.231l2.2-10.667Z" transform="translate(0 0)"/></g></g></svg>