<svg xmlns="http://www.w3.org/2000/svg" xmlns:xlink="http://www.w3.org/1999/xlink" width="50" height="50" viewBox="0 0 50 50"><defs><style>.a{fill:#f0f0f0;}.b{clip-path:url(#a);}.c{fill:#767676;}</style><clipPath id="a"><rect class="a" width="50" height="50" transform="translate(144 20)"/></clipPath></defs><g class="b" transform="translate(-144 -20)"><g transform="translate(153 29)"><path class="c" d="M29.245,32.192H4.659a.535.535,0,0,1-.534-.535V23.7a.525.525,0,0,1-.19-.12L.157,19.8a.533.533,0,0,1,0-.755l4.981-4.98a8.616,8.616,0,0,1-1.5-2.695,2.075,2.075,0,0,1,.294-2.15,1.616,1.616,0,0,1,1.192-.448,4.338,4.338,0,0,1,1.8.481L9.26,6.919C8.634,5.6,8.622,4.533,9.226,3.93a1.623,1.623,0,0,1,1.2-.449,6.645,6.645,0,0,1,3.65,1.649L19.052.151a.55.55,0,0,1,.756,0L23.586,3.93a.535.535,0,0,1,0,.756l-7.558,7.558-3.779,3.779L9.976,18.3H21.232a4.551,4.551,0,0,1-1.073-2.137,2.137,2.137,0,0,1,3.74-1.412,2.138,2.138,0,0,1,3.741,1.412A4.541,4.541,0,0,1,26.568,18.3h2.677a.535.535,0,0,1,.534.535V31.658A.535.535,0,0,1,29.245,32.192Zm-9.62-12.827V31.123H28.71V19.366Zm-4.276,0V31.123h3.207V19.366Zm-6.413-.029-3.77,3.77h.029v8.016h9.085V19.366H8.935Zm-.842-6.716h0l-6.8,6.8,3.021,3.023,6.8-6.8L8.093,12.621ZM22.3,15.09a1.07,1.07,0,0,0-1.069,1.069A6,6,0,0,0,22.621,18.3h2.559a6.067,6.067,0,0,0,1.392-2.137,1.069,1.069,0,1,0-2.137,0V16.3a.535.535,0,1,1-1.069,0v-.144A1.07,1.07,0,0,0,22.3,15.09ZM11.872,8.843h0L8.848,11.866l3.024,3.023,3.023-3.023L11.872,8.843Zm-6.784.994a.629.629,0,0,0-.4.14c-.37.368-.014,1.745,1.206,3.328l1.817-1.817.306-.306A5.565,5.565,0,0,0,5.144,9.839ZM19.43,1.285h0l-6.8,6.8,3.024,3.021,6.8-6.8L19.43,1.285ZM9.8,7.892,7.9,9.8c.307.2.6.408.885.626l1.647-1.646C10.206,8.495,10,8.2,9.8,7.892Zm.579-3.347a.634.634,0,0,0-.4.14c-.369.369-.013,1.747,1.206,3.329l.306-.307,1.817-1.817a5.571,5.571,0,0,0-2.875-1.343Z" transform="translate(0)"/><path class="c" d="M3.741,6.412C2.524,6.412,0,3.3,0,2.137a2.15,2.15,0,0,1,1.382-2A2.138,2.138,0,0,1,3.741.724,2.138,2.138,0,0,1,7.483,2.137C7.483,3.3,4.959,6.412,3.741,6.412Zm-1.6-5.344A1.07,1.07,0,0,0,1.069,2.137c.012.67,2.066,3.127,2.68,3.207C4.36,5.263,6.4,2.805,6.413,2.137a1.069,1.069,0,1,0-2.138,0v.144a.535.535,0,1,1-1.069,0V2.137A1.07,1.07,0,0,0,2.138,1.068Z" transform="translate(24.434 6.54)"/><path class="c" d="M1.6,0a.534.534,0,0,0-.534.534v.534H.534a.534.534,0,1,0,0,1.069h.534v.534a.534.534,0,0,0,1.069,0V2.138h.534a.534.534,0,0,0,0-1.069H2.138V.534A.534.534,0,0,0,1.6,0Z" transform="translate(26.572 1.729)"/><path class="c" d="M1.069.534A.534.534,0,1,1,.534,0,.534.534,0,0,1,1.069.534Z" transform="translate(20.159 9.746)"/><path class="c" d="M1.6,3.207a.534.534,0,0,0,.534-.534V2.138h.534a.534.534,0,0,0,0-1.069H2.138V.534a.534.534,0,1,0-1.069,0v.534H.534a.534.534,0,1,0,0,1.069h.534v.534A.534.534,0,0,0,1.6,3.207Z" transform="translate(14.814 14.021)"/><path class="c" d="M1.069.534A.534.534,0,1,1,.534,0,.534.534,0,0,1,1.069.534Z" transform="translate(29.779 15.09)"/></g></g></svg>