<svg xmlns="http://www.w3.org/2000/svg" xmlns:xlink="http://www.w3.org/1999/xlink" width="50" height="50" viewBox="0 0 50 50"><defs><style>.a{fill:#f0f0f0;}.b{clip-path:url(#a);}.c{fill:#767676;}</style><clipPath id="a"><rect class="a" width="50" height="50" transform="translate(203 20)"/></clipPath></defs><g class="b" transform="translate(-203 -20)"><path class="c" d="M13,31.7a3.1,3.1,0,0,1-3.1-3.1v-.619H1.857a1.857,1.857,0,0,1,0-3.714H2.8c2.149-2.7,2.149-6.635,2.149-9.793V13A7.967,7.967,0,0,1,6.609,8.114,8.117,8.117,0,0,1,10.791,5.26a3.1,3.1,0,1,1,4.42,0,8.107,8.107,0,0,1,4.15,2.809A7.96,7.96,0,0,1,21.047,13v1.474c0,3.159,0,7.09,2.149,9.793h.946a1.857,1.857,0,1,1,0,3.714H16.1V28.6A3.1,3.1,0,0,1,13,31.7Zm-1.857-3.714V28.6a1.857,1.857,0,0,0,3.714,0v-.619ZM1.857,25.505a.619.619,0,0,0,0,1.238H24.142a.619.619,0,1,0,0-1.238Zm3.693-4.086A10.341,10.341,0,0,1,4.32,24.267H21.68a10.341,10.341,0,0,1-1.229-2.848H5.549ZM13,6.19A6.817,6.817,0,0,0,6.19,13v1.474a32.148,32.148,0,0,1-.359,5.707H20.169a32.1,32.1,0,0,1-.359-5.707V13A6.818,6.818,0,0,0,13,6.19Zm0-4.952A1.857,1.857,0,1,0,14.857,3.1,1.859,1.859,0,0,0,13,1.238Z" transform="translate(215 29)"/></g></svg>