<svg xmlns="http://www.w3.org/2000/svg" xmlns:xlink="http://www.w3.org/1999/xlink" width="50" height="50" viewBox="0 0 50 50"><defs><style>.a{fill:#f0f0f0;}.b{clip-path:url(#a);}.c{fill:#767676;}</style><clipPath id="a"><rect class="a" width="50" height="50" transform="translate(85 20)"/></clipPath></defs><g class="b" transform="translate(-85 -20)"><g transform="translate(92 31)"><path class="c" d="M16.881,16.3H.582a.585.585,0,0,1-.2-.042.446.446,0,0,1-.056-.026.729.729,0,0,1-.166-.122.553.553,0,0,1-.1-.154.02.02,0,0,0,0-.006.013.013,0,0,1,0-.008.568.568,0,0,1-.04-.2.033.033,0,0,0,0-.01.033.033,0,0,1,0-.01V.582A.583.583,0,0,1,.582,0h16.3a.583.583,0,0,1,.582.582V15.718A.583.583,0,0,1,16.881,16.3ZM13.971,8.973h0l-3.53,3.53L13.6,15.135h2.7V11.3L13.971,8.973ZM6.439,10.684h0L1.987,15.135h9.794L9.172,12.963l-.01-.005L6.439,10.684ZM1.165,1.165V14.312L5.991,9.484a.583.583,0,0,1,.785-.036l2.767,2.307,4.017-4.017a.581.581,0,0,1,.824,0L16.3,9.655V1.165Z" transform="translate(8.733 2.328)"/><path class="c" d="M29.6,28.524a.561.561,0,0,1-.122-.014L17.464,25.872,5.452,28.51a.573.573,0,0,1-.124.014.585.585,0,0,1-.569-.454L.014,6.461a.582.582,0,0,1,.445-.7L6.4,4.461V.582A.583.583,0,0,1,6.987,0H27.943a.583.583,0,0,1,.582.582V4.461l5.945,1.3a.593.593,0,0,1,.366.256.581.581,0,0,1,.077.439L30.171,28.067A.578.578,0,0,1,29.6,28.524ZM11.108,23.285h0l6.46,1.419h.006l11.584,2.543L33.653,6.777,28.525,5.654V6.843l3.175.7a.582.582,0,0,1,.444.694L28.9,23.02a.583.583,0,0,1-.694.443l-.811-.178ZM6.4,5.654,1.276,6.777,5.771,27.248l8.977-1.972L9.01,24.017a.581.581,0,0,1-.444-.693l.008-.039H7.538l-.811.18a.725.725,0,0,1-.125.013.58.58,0,0,1-.569-.457L2.785,8.235a.582.582,0,0,1,.444-.694l3.175-.7ZM7.569,1.165V22.12H27.361V1.165ZM28.525,8.033V19.281l2.357-10.73ZM6.4,8.033h0l-2.357.519L6.4,19.281V8.033Z" transform="translate(0)"/><path class="c" d="M2.924,5.821H2.911A2.911,2.911,0,1,1,4.706.637.552.552,0,0,1,4.8.7a.076.076,0,0,1,.012.018.1.1,0,0,0,.01.016,2.9,2.9,0,0,1-1.9,5.087ZM2.911,1.165A1.746,1.746,0,1,0,4.657,2.911,1.748,1.748,0,0,0,2.911,1.165Z" transform="translate(15.136 4.657)"/></g></g></svg>