<svg xmlns="http://www.w3.org/2000/svg" width="29.607" height="26.054" viewBox="0 0 29.607 26.054"><defs><style>.a{fill:#767676;stroke:#767676;stroke-width:0.2px;}</style></defs><g transform="translate(0.1 -28.401)"><path class="a" d="M27.032,30.9a8.143,8.143,0,0,0-11.515.006l-.8.8-.817-.817a8.135,8.135,0,0,0-11.515-.012A8.135,8.135,0,0,0,2.394,42.4L14.1,54.105a.835.835,0,0,0,1.185.006L27.02,42.422A8.158,8.158,0,0,0,27.032,30.9Zm-1.2,10.33-11.141,11.1L3.579,41.213a6.454,6.454,0,1,1,9.127-9.127l1.409,1.409a.839.839,0,0,0,1.191,0l1.4-1.4a6.458,6.458,0,0,1,9.133,9.133Z" transform="translate(0)"/></g></svg>