<svg xmlns="http://www.w3.org/2000/svg" xmlns:xlink="http://www.w3.org/1999/xlink" width="50" height="50" viewBox="0 0 50 50"><defs><style>.a{fill:#f0f0f0;}.b{clip-path:url(#a);}.c{fill:#e98b84;stroke:#e98b84;stroke-width:0.5px;}</style><clipPath id="a"><rect class="a" width="50" height="50" transform="translate(321 270)"/></clipPath></defs><g class="b" transform="translate(-321 -270)"><g transform="translate(331 250.31)"><g transform="translate(0 31.952)"><path class="c" d="M29.41,41.01a8,8,0,0,0-7.942-8.059A7.9,7.9,0,0,0,14.7,36.8a7.906,7.906,0,0,0-6.764-3.85A8.077,8.077,0,0,0,2.726,47.078L13.98,58.5a1.015,1.015,0,0,0,1.449,0l11.254-11.42A8.079,8.079,0,0,0,29.41,41.01Z" transform="translate(0 -32.952)"/></g></g></g></svg>