<svg xmlns="http://www.w3.org/2000/svg" xmlns:xlink="http://www.w3.org/1999/xlink" width="35" height="35" viewBox="0 0 35 35"><defs><style>.a{fill:#f0f0f0;}.b{clip-path:url(#a);}.c{fill:#bd081c;}</style><clipPath id="a"><rect class="a" width="35" height="35" transform="translate(266 212)"/></clipPath></defs><g class="b" transform="translate(-266 -212)"><g transform="translate(272.7 218.693)"><path class="c" d="M3.306,18.814a11.561,11.561,0,0,1,.042-3.459c.219-.941,1.414-5.993,1.414-5.993A4.354,4.354,0,0,1,4.4,7.572c0-1.677.972-2.928,2.181-2.928a1.515,1.515,0,0,1,1.526,1.7,24.269,24.269,0,0,1-1,4.014A1.751,1.751,0,0,0,8.9,12.536c2.143,0,3.79-2.26,3.79-5.522A4.76,4.76,0,0,0,7.649,2.109,5.219,5.219,0,0,0,2.2,7.341a4.691,4.691,0,0,0,.9,2.752.36.36,0,0,1,.084.346c-.092.381-.295,1.2-.335,1.367-.052.221-.174.268-.4.161C.941,11.266,0,9.065,0,7.3,0,3.493,2.764,0,7.967,0,12.149,0,15.4,2.98,15.4,6.964c0,4.155-2.62,7.5-6.257,7.5A3.227,3.227,0,0,1,6.38,13.079s-.6,2.3-.751,2.866a13.463,13.463,0,0,1-1.5,3.161.5.5,0,0,1-.824-.292" transform="translate(3.3 1.307)"/></g></g></svg>