<svg xmlns="http://www.w3.org/2000/svg" xmlns:xlink="http://www.w3.org/1999/xlink" width="35" height="35" viewBox="0 0 35 35"><defs><style>.a{fill:#f0f0f0;}.b{clip-path:url(#a);}.c{fill:#54beeb;}</style><clipPath id="a"><rect class="a" width="35" height="35" transform="translate(186 212)"/></clipPath></defs><g class="b" transform="translate(-186 -212)"><g transform="translate(192.9 219.067)"><path class="c" d="M17.644,3.976c.006.172.01.348.01.524A11.392,11.392,0,0,1,6.181,15.969,11.386,11.386,0,0,1,0,14.157a8.113,8.113,0,0,0,5.97-1.668,4.038,4.038,0,0,1-3.765-2.8,3.883,3.883,0,0,0,.758.072,3.984,3.984,0,0,0,1.061-.141A4.032,4.032,0,0,1,.789,5.668a.249.249,0,0,1,0-.052,3.977,3.977,0,0,0,1.826.5A4.035,4.035,0,0,1,1.368.737a11.447,11.447,0,0,0,8.31,4.213,4.035,4.035,0,0,1,6.87-3.68A7.973,7.973,0,0,0,19.112.293a4.051,4.051,0,0,1-1.775,2.232,7.991,7.991,0,0,0,2.315-.633,8.208,8.208,0,0,1-2.008,2.084" transform="translate(1.1 2.933)"/></g></g></svg>