<svg xmlns="http://www.w3.org/2000/svg" xmlns:xlink="http://www.w3.org/1999/xlink" width="35" height="35" viewBox="0 0 35 35"><defs><style>.a{fill:#f0f0f0;}.b{clip-path:url(#a);}.c{fill:#1ad741;}</style><clipPath id="a"><rect class="a" width="35" height="35" transform="translate(226 212)"/></clipPath></defs><g class="b" transform="translate(-226 -212)"><g transform="translate(234 220)"><path class="c" d="M10,20a9.93,9.93,0,0,1-5.5-1.652L.658,19.576,1.9,15.862A9.9,9.9,0,0,1,0,10,10.01,10.01,0,0,1,10,0H10a10,10,0,0,1,0,20ZM6.235,4.574a1.449,1.449,0,0,0-1.022.359l-.025.025a3.193,3.193,0,0,0-1,2.408,5.522,5.522,0,0,0,1.175,3l.012.017c.011.015.032.045.063.089a11.869,11.869,0,0,0,4.916,4.308,8.505,8.505,0,0,0,2.928.819,2.6,2.6,0,0,0,.574-.067,2.823,2.823,0,0,0,1.962-1.411,2.5,2.5,0,0,0,.171-1.387c-.057-.1-.189-.163-.39-.26l-.168-.082c-.516-.255-1.742-.859-1.993-.946a.726.726,0,0,0-.254-.051.56.56,0,0,0-.464.269l-.114.161a9.573,9.573,0,0,1-.667.874.562.562,0,0,1-.417.169.758.758,0,0,1-.287-.058l-.087-.036a7.337,7.337,0,0,1-2.257-1.411A8.747,8.747,0,0,1,7.27,9.347a.462.462,0,0,1,.11-.614l.007-.009c.085-.105.17-.195.251-.281.06-.063.122-.129.184-.2l.026-.03a1.614,1.614,0,0,0,.3-.428A.594.594,0,0,0,8.1,7.242c-.049-.1-.346-.825-.609-1.462l-.289-.7c-.191-.456-.333-.481-.635-.494l-.047,0C6.437,4.578,6.339,4.574,6.235,4.574Z"/></g></g></svg>