<svg xmlns="http://www.w3.org/2000/svg" xmlns:xlink="http://www.w3.org/1999/xlink" width="50" height="50" viewBox="0 0 50 50"><defs><style>.a{fill:#f0f0f0;}.b{clip-path:url(#a);}.c{fill:#11ab68;}</style><clipPath id="a"><rect class="a" width="50" height="50" transform="translate(88 287)"/></clipPath></defs><g class="b" transform="translate(-88 -287)"><g transform="translate(98 299.999)"><path class="c" d="M8.483,5.489H.5a.472.472,0,0,1-.5-.5V.5A.472.472,0,0,1,.5,0H8.483a.472.472,0,0,1,.5.5V4.99A.472.472,0,0,1,8.483,5.489ZM1,1V4.491H7.985V1Z" transform="translate(15.47 11.478)"/><path class="c" d="M.5,1H4.491a.471.471,0,0,0,.5-.5.471.471,0,0,0-.5-.5H.5A.471.471,0,0,0,0,.5.471.471,0,0,0,.5,1Z" transform="translate(1.996 9.482)"/><path class="c" d="M.5,1H4.491a.471.471,0,0,0,.5-.5.471.471,0,0,0-.5-.5H.5A.471.471,0,0,0,0,.5.471.471,0,0,0,.5,1Z" transform="translate(7.984 9.482)"/><path class="c" d="M.5,1H6.986a.471.471,0,0,0,.5-.5.471.471,0,0,0-.5-.5H.5A.471.471,0,0,0,0,.5.471.471,0,0,0,.5,1Z" transform="translate(1.996 11.478)"/><path class="c" d="M2,0H.5A.471.471,0,0,0,0,.5.471.471,0,0,0,.5,1H2A.471.471,0,0,0,2.5.5.471.471,0,0,0,2,0Z" transform="translate(10.48 11.478)"/><path class="c" d="M26.448,24.452h-.2L3.194,21.857A1.945,1.945,0,0,1,1.43,19.878,2.011,2.011,0,0,1,0,17.965V2A2,2,0,0,1,2,0H24.952a2,2,0,0,1,2,2V4.4l1.2.146a1.865,1.865,0,0,1,1.347.748,1.936,1.936,0,0,1,.449,1.447l-1.5,16.019A2.005,2.005,0,0,1,26.448,24.452Zm-24-4.491a1.013,1.013,0,0,0,.9.9l23,2.595c.031,0,.062,0,.093,0a1.008,1.008,0,0,0,1-.9l1.5-16.018a1.018,1.018,0,0,0-.2-.749A.855.855,0,0,0,28.1,5.44l-1.148-.1V17.965a2,2,0,0,1-2,2H2.445ZM1,7.485v10.48a1,1,0,0,0,1,1H24.952a1,1,0,0,0,1-1V7.485ZM1,3.493V6.487H25.95V3.493ZM2,1A1,1,0,0,0,1,2v.5H25.95V2a1,1,0,0,0-1-1Z" transform="translate(0 0.001)"/></g></g></svg>