<svg xmlns="http://www.w3.org/2000/svg" xmlns:xlink="http://www.w3.org/1999/xlink" width="610" height="171" viewBox="0 0 610 171"><defs><style>.a{fill:#fff;}.b{clip-path:url(#a);}.c{fill:#e98b84;}.d{fill:#3e486c;}</style><clipPath id="a"><rect class="a" width="610" height="171" transform="translate(54 50)"/></clipPath></defs><g class="b" transform="translate(-54 -50)"><g transform="translate(139.363 89.633)"><g transform="translate(0)"><path class="c" d="M5.589,69.8H1.752C.573,69.8,0,69.189,0,67.935V17.873a1.878,1.878,0,0,1,.485-1.356A1.535,1.535,0,0,1,1.642,16H5.515a1.548,1.548,0,0,1,1.241.559,1.981,1.981,0,0,1,.464,1.311V67.935C7.22,69.172,6.671,69.8,5.589,69.8Zm0-61.705H1.752C.59,8.093,0,7.466,0,6.23V1.863A1.862,1.862,0,0,1,.485.509,1.538,1.538,0,0,1,1.642,0H5.515A1.57,1.57,0,0,1,6.756.533a1.945,1.945,0,0,1,.464,1.33V6.23C7.22,7.466,6.671,8.093,5.589,8.093Z" transform="translate(226.244 19.255)"/><path class="c" d="M8.416,8.075A30.06,30.06,0,0,1,11.148,5.13a20.657,20.657,0,0,1,3.4-2.571,18.656,18.656,0,0,1,4.2-1.845A17.282,17.282,0,0,1,23.913,0a22.936,22.936,0,0,1,9.4,1.826A19.526,19.526,0,0,1,40.156,6.8a21.365,21.365,0,0,1,4.165,7.4,28.735,28.735,0,0,1,1.41,9.1V52.44a2.919,2.919,0,0,1-.754,2.188,2.7,2.7,0,0,1-1.939.73H39.831c-1.066,0-1.757-.216-2.064-.648a3.828,3.828,0,0,1-.453-2.138V23.3a20.211,20.211,0,0,0-.713-5.26,14.362,14.362,0,0,0-2.347-4.866,11.919,11.919,0,0,0-4.32-3.554,14.231,14.231,0,0,0-6.592-1.379,15.994,15.994,0,0,0-5.116.88,15.707,15.707,0,0,0-4.82,2.589,14.177,14.177,0,0,0-3.578,4.251,11.724,11.724,0,0,0-1.412,5.8V53.469a1.676,1.676,0,0,1-1.9,1.889H2.034C.674,55.358,0,54.727,0,53.469V2.748A1.783,1.783,0,0,1,.567,1.373,1.918,1.918,0,0,1,1.907.854h4.51a1.927,1.927,0,0,1,1.452.566,1.819,1.819,0,0,1,.547,1.327Z" transform="translate(245.499 33.696)"/><path class="c" d="M8.628,1.579c.535,1.394,1.219,3.163,2.073,5.3q1.255,3.207,2.735,6.933c1,2.489,2.014,5.049,3.069,7.688s2.071,5.157,3.036,7.545,1.86,4.562,2.671,6.511S23.66,39.07,24.137,40.2C24.58,39.07,25.2,37.513,26,35.552s1.661-4.138,2.59-6.541c.945-2.393,1.939-4.919,2.991-7.549,1.036-2.649,2.042-5.2,3.011-7.691s1.883-4.8,2.707-6.935,1.518-3.908,2.053-5.3A2.7,2.7,0,0,1,40.193.414,2.269,2.269,0,0,1,41.582,0h4.7c1.245,0,1.859.494,1.859,1.453a1.39,1.39,0,0,1-.041.3,2.255,2.255,0,0,1-.127.366,2.094,2.094,0,0,0-.119.465L27.763,51.407a4.38,4.38,0,0,0-.227.48,1.269,1.269,0,0,1-.335.5,2.185,2.185,0,0,1-.621.4,2.676,2.676,0,0,1-1.05.167H22.746a2.815,2.815,0,0,1-1.065-.167,2.057,2.057,0,0,1-.606-.4,1.407,1.407,0,0,1-.352-.5,3,3,0,0,0-.224-.48L.17,2.623a2.961,2.961,0,0,1-.087-.287A3.712,3.712,0,0,1,0,1.5C0,.529.656.035,1.949.035h4.43A2.211,2.211,0,0,1,7.774.46a2.649,2.649,0,0,1,.854,1.119" transform="translate(293.636 36.103)"/><path class="c" d="M5.58,69.8H1.744C.587,69.8,0,69.172,0,67.935V17.873a1.926,1.926,0,0,1,.481-1.356A1.548,1.548,0,0,1,1.638,16H5.5a1.535,1.535,0,0,1,1.241.559,1.986,1.986,0,0,1,.477,1.311V67.935C7.22,69.172,6.668,69.8,5.58,69.8Zm0-61.705H1.744C.587,8.093,0,7.466,0,6.23V1.863A1.909,1.909,0,0,1,.481.509,1.552,1.552,0,0,1,1.638,0H5.5A1.558,1.558,0,0,1,6.743.533a1.947,1.947,0,0,1,.477,1.33V6.23C7.22,7.466,6.668,8.093,5.58,8.093Z" transform="translate(348.994 19.255)"/><path class="c" d="M16.991,67.392a14.43,14.43,0,0,1-3.7-.486,8.51,8.51,0,0,1-3.331-1.651A8.791,8.791,0,0,1,7.531,62a12.814,12.814,0,0,1-.94-5.26V19.212H1.959A2.632,2.632,0,0,1,.477,18.88Q0,18.556,0,17.436V13.4c0-.747.158-1.21.477-1.4a2.927,2.927,0,0,1,1.482-.285H6.591V2.5a1.572,1.572,0,0,1,.286-1.059A2.086,2.086,0,0,1,7.835.9,7.435,7.435,0,0,1,8.817.69c.495-.06,1-.156,1.535-.275.64-.11,1.34-.245,2.083-.384A2.136,2.136,0,0,1,13.51.109a1.183,1.183,0,0,1,.581.529,2.153,2.153,0,0,1,.223.8c.029.3.036.633.036.971v9.31h5.558a1.832,1.832,0,0,1,1.335.425,2.286,2.286,0,0,1,.419,1.563V17.13a2.423,2.423,0,0,1-.419,1.6,1.716,1.716,0,0,1-1.335.483H14.35V56.658a2.73,2.73,0,0,0,.678,2.118,2.772,2.772,0,0,0,1.883.61,2.083,2.083,0,0,1,1.52.6,2.281,2.281,0,0,1,.589,1.69v3.544a2.165,2.165,0,0,1-.553,1.587,1.958,1.958,0,0,1-1.476.585" transform="translate(361.028 21.662)"/><path class="c" d="M26.674,55.359a24.675,24.675,0,0,1-6.966-.994,25.914,25.914,0,0,1-6.336-2.818A28.151,28.151,0,0,1,7.946,47.19a28.9,28.9,0,0,1-4.226-5.606A27.977,27.977,0,0,1,.966,34.992,27.593,27.593,0,0,1,0,27.673a29.81,29.81,0,0,1,.9-7.33,28.167,28.167,0,0,1,2.6-6.609,27.027,27.027,0,0,1,4.059-5.6,26.081,26.081,0,0,1,5.376-4.341,25.779,25.779,0,0,1,6.427-2.8A26.466,26.466,0,0,1,26.674,0,25.989,25.989,0,0,1,32.7.713,27.562,27.562,0,0,1,38.458,2.8a25.986,25.986,0,0,1,5.162,3.39,26.374,26.374,0,0,1,4.308,4.633,25.754,25.754,0,0,1,3.845,8.257,39.357,39.357,0,0,1,1.174,10.658c0,1.318-.6,1.986-1.778,1.986H8.5A19.776,19.776,0,0,0,10.9,37.962a21.232,21.232,0,0,0,4.135,4.993,19.147,19.147,0,0,0,5.357,3.332,16.285,16.285,0,0,0,6.119,1.2,16.862,16.862,0,0,0,4.025-.446,15.1,15.1,0,0,0,3.284-1.183,17.694,17.694,0,0,0,2.736-1.681c.875-.67,1.665-1.312,2.417-1.963l.084-.08a7.854,7.854,0,0,1,.8-.633,1.522,1.522,0,0,1,.866-.292,1.556,1.556,0,0,1,1.176.747l.513.726.016.022.787,1.113.067.093c.312.435.558.779.761,1.044.161.23.3.415.4.551l.09.121a2.636,2.636,0,0,1,.325.526,1.5,1.5,0,0,1,.117.611,1.852,1.852,0,0,1-.34,1,6.922,6.922,0,0,1-1.2,1.248,33.549,33.549,0,0,1-3.624,2.582,25.964,25.964,0,0,1-3.949,2.006,23.931,23.931,0,0,1-9.185,1.765Zm.288-47.318a19.162,19.162,0,0,0-5.212.719,17.815,17.815,0,0,0-4.878,2.2,20.947,20.947,0,0,0-5.3,5.409,19.574,19.574,0,0,0-3.035,7.185H45.13a17.091,17.091,0,0,0-2.071-6.358A17.672,17.672,0,0,0,38.946,12.3,18.984,18.984,0,0,0,33.37,9.163,18.714,18.714,0,0,0,26.962,8.041Z" transform="translate(389.91 33.696)"/><path class="d" d="M44.612,57.765c-6.075,0-10.032-2.423-11.76-7.2H32.2c-4.939,4.778-10.3,7.2-15.926,7.2A16.145,16.145,0,0,1,4.519,53.331,15.437,15.437,0,0,1,0,41.85,16.118,16.118,0,0,1,7.309,27.744c4.836-3.289,11.877-4.956,20.927-4.956H32.2V17.769c0-2.856-.825-5.028-2.451-6.456s-4.1-2.15-7.344-2.15A36.191,36.191,0,0,0,4.82,14.084V3.823A56.512,56.512,0,0,1,24.816,0C32,0,37.466,1.451,41.056,4.314s5.409,7.216,5.409,12.942V41.72c0,4.311,1.4,6.5,4.172,6.5a11.636,11.636,0,0,0,1.958-.225l.355,8.357A29.642,29.642,0,0,1,44.612,57.765ZM28.689,31.342c-4.784,0-8.425.763-10.82,2.267A7.521,7.521,0,0,0,14.26,40.4a7.132,7.132,0,0,0,7.233,7.237c3.492,0,7.094-1.711,10.707-5.086V31.342Z" transform="translate(0 31.289)"/><path class="d" d="M0,79.426H14.441V0H0Z" transform="translate(62.578 9.627)"/><path class="d" d="M14.442,77.02H0V21.744H14.442V77.02Zm0-64.593H0V0H14.442V12.427Z" transform="translate(84.24 12.034)"/><path class="d" d="M21.263,55.358,0,0H15.835L31.413,39.923,46.9,0H57.764L36.287,55.358Z" transform="translate(105.902 33.696)"/><path class="d" d="M30.179,57.765c-9.3,0-16.729-2.642-22.088-7.852S0,37.5,0,28.485C0,19.977,2.493,13.024,7.41,7.82,12.315,2.631,18.9,0,26.969,0A27.034,27.034,0,0,1,37.584,1.911a17.383,17.383,0,0,1,7.3,5.751c3.756,5.069,5.66,13.206,5.66,24.185H15.882c.506,5.24,2.236,9.226,5.147,11.847s7.085,3.949,12.406,3.949a51.039,51.039,0,0,0,17.108-3.47V54.644A73.79,73.79,0,0,1,30.179,57.765ZM26.514,9.308a8.852,8.852,0,0,0-7.391,3.538c-1.8,2.348-2.963,5.915-3.455,10.6H35.735c0-4.685-.776-8.253-2.309-10.6A7.737,7.737,0,0,0,26.514,9.308Z" transform="translate(161.259 31.289)"/><path class="c" d="M0,0H12.034V1.838H7.012v12.6H4.94V1.838H0Z" transform="translate(426.013)"/><path class="c" d="M12.367,0h2.075V14.441h-2.23V3.2L7.448,8.787h-.41L2.218,3.2V14.441H0V0H2.1L7.248,5.931Z" transform="translate(442.861)"/></g></g></g></svg>