<svg xmlns="http://www.w3.org/2000/svg" xmlns:xlink="http://www.w3.org/1999/xlink" width="50" height="50" viewBox="0 0 50 50"><defs><style>.a{fill:#f0f0f0;}.b{clip-path:url(#a);}.c{fill:#4b4847;}</style><clipPath id="a"><rect class="a" width="50" height="50" transform="translate(211 287)"/></clipPath></defs><g class="b" transform="translate(-211 -287)"><g transform="translate(221 297)"><path class="c" d="M.585,0A.586.586,0,1,0,1.17.586.586.586,0,0,0,.585,0Z" transform="translate(17.895 15.234)"/><path class="c" d="M29.357,30H.585a.586.586,0,0,1-.458-.95l5.848-7.383a.579.579,0,0,1,.457-.222h5.123L7.182,14.573a9.356,9.356,0,1,1,15.577,0l-4.373,6.872h5.123a.588.588,0,0,1,.458.222l5.847,7.383a.585.585,0,0,1-.457.95Zm-6.743-3.691,2,2.519h3.536l-2-2.519Zm-13.793,0-2,2.519H23.117l-2-2.519Zm-5.029,0-2,2.519H5.332l2-2.519Zm15.9-3.692,2,2.52h3.535l-2-2.52Zm-2.05,0-1.6,2.52h4.155l-2-2.52H17.64Zm-5.9,0-2,2.52H13.9l-1.6-2.52Zm-5.029,0-2,2.52H8.256l2-2.52ZM14.971,1.172A8.207,8.207,0,0,0,8.159,13.927l0,.005,0,.005,6.806,10.7,3.055-4.8,3.751-5.895,0-.005,0-.006A8.208,8.208,0,0,0,14.971,1.172Z" transform="translate(0)"/><path class="c" d="M5.848,11.719A5.859,5.859,0,1,1,11.7,5.859,5.861,5.861,0,0,1,5.848,11.719Zm0-10.547a4.688,4.688,0,1,0,4.678,4.687A4.688,4.688,0,0,0,5.848,1.172Z" transform="translate(9.123 3.516)"/><path class="c" d="M3.048.084a.584.584,0,0,0-.8.2L.084,3.877a.585.585,0,1,0,1,.6L3.247.889a.587.587,0,0,0-.2-.8Z" transform="translate(14.386 17.15)"/></g></g></svg>