<svg xmlns="http://www.w3.org/2000/svg" xmlns:xlink="http://www.w3.org/1999/xlink" width="50" height="50" viewBox="0 0 50 50"><defs><style>.a{fill:#f0f0f0;}.b{clip-path:url(#a);}.c{fill:#4b4847;}</style><clipPath id="a"><rect class="a" width="50" height="50" transform="translate(336 287)"/></clipPath></defs><g class="b" transform="translate(-336 -287)"><g transform="translate(346 297)"><path class="c" d="M29.484,29.984H20.489a.5.5,0,0,1-.5-.5V24.63l-.287-.46a7.259,7.259,0,0,1-.622-6.414L7.349,22.275a2.5,2.5,0,0,1-3.23-1.433L2.241,15.966A2.489,2.489,0,0,1,0,13.493V2.5A2.506,2.506,0,0,1,2.5,0h19.99a2.506,2.506,0,0,1,2.5,2.5v2.8l3.083,3.089a6.5,6.5,0,0,1,1.915,4.606v16.5A.5.5,0,0,1,29.484,29.984Zm-8.5-5v4h8v-4ZM17.493,9.4a1.666,1.666,0,0,0-1.23,2.791l4.1,4.468a.5.5,0,0,1,.065.585,6.223,6.223,0,0,0,.127,6.4l.217.346h8.218v-11a5.5,5.5,0,0,0-1.622-3.9L25.744,7.468l1.692,4.392A2.5,2.5,0,0,1,26,15.089l-.513.2,1.85,1.85-.707.706L18.669,9.883A1.655,1.655,0,0,0,17.493,9.4Zm-7.318,6.592-5.966,2.3.843,2.192a1.509,1.509,0,0,0,1.4.961,1.491,1.491,0,0,0,.539-.1L19.045,16.7l-.65-.708Zm-6.853,0,.526,1.368L7.4,15.991ZM2.5,1A1.5,1.5,0,0,0,1,2.5V13.493a1.5,1.5,0,0,0,1.5,1.5h14.98L15.528,12.86a2.666,2.666,0,0,1,3.848-3.686l4.577,4.578a1.5,1.5,0,0,0,.033-.259V5.686l0-.011,0-3.177a1.5,1.5,0,0,0-1.5-1.5ZM24.987,8.283h0v5.209a2.5,2.5,0,0,1-.211,1l.867-.336a1.5,1.5,0,0,0,.86-1.937Z"/><path class="c" d="M3.7,5H1.3A1.3,1.3,0,0,1,0,3.7V1.3A1.3,1.3,0,0,1,1.3,0H3.7A1.3,1.3,0,0,1,5,1.3V3.7A1.3,1.3,0,0,1,3.7,5ZM1,3v.7a.3.3,0,0,0,.3.3H3.7A.3.3,0,0,0,4,3.7V3H3V2H4V1.3A.3.3,0,0,0,3.7,1H1.3a.3.3,0,0,0-.3.3V2H2V3Z" transform="translate(1.999 1.999)"/><path class="c" d="M0,0H2V1H0Z" transform="translate(2.499 8.495)"/><path class="c" d="M0,0H2V1H0Z" transform="translate(2.499 11.494)"/><path class="c" d="M0,0H2V1H0Z" transform="translate(11.494 11.494)"/><path class="c" d="M0,0H2V1H0Z" transform="translate(5.497 8.495)"/><path class="c" d="M0,0H2V1H0Z" transform="translate(8.495 8.495)"/><path class="c" d="M0,0H2V1H0Z" transform="translate(11.494 8.495)"/><path class="c" d="M0,0H1V1.5H0Z" transform="translate(20.989 2.499)"/><path class="c" d="M0,0H1V1.5H0Z" transform="translate(18.99 2.499)"/><path class="c" d="M0,0H1V1.5H0Z" transform="translate(16.991 2.499)"/><path class="c" d="M0,0H1V1.5H0Z" transform="translate(14.992 2.499)"/><path class="c" d="M0,0H1V1H0Z" transform="translate(21.988 25.986)"/></g></g></svg>